<svg width="686" height="123" viewBox="0 0 686 123" fill="none" xmlns="http://www.w3.org/2000/svg">
<path d="M10.017 16.609C11.187 16.609 12.204 16.834 13.068 17.284C13.95 17.734 14.643 18.418 15.147 19.336C15.651 20.236 15.903 21.379 15.903 22.765V31H13.608V23.008C13.608 21.568 13.257 20.488 12.555 19.768C11.853 19.03 10.854 18.661 9.558 18.661C8.622 18.661 7.794 18.859 7.074 19.255C6.372 19.633 5.823 20.191 5.427 20.929C5.049 21.649 4.86 22.54 4.86 23.602V31H2.565V10.966H4.86V20.632L4.401 19.741C4.869 18.751 5.589 17.986 6.561 17.446C7.533 16.888 8.685 16.609 10.017 16.609ZM29.8812 31V27.922L29.8002 27.382V22.198C29.8002 21.046 29.4672 20.164 28.8012 19.552C28.1532 18.922 27.1722 18.607 25.8582 18.607C24.9762 18.607 24.1302 18.751 23.3202 19.039C22.5102 19.327 21.8172 19.714 21.2412 20.2L20.2692 18.499C20.9892 17.887 21.8622 17.419 22.8882 17.095C23.9142 16.771 24.9942 16.609 26.1282 16.609C28.0362 16.609 29.5032 17.077 30.5292 18.013C31.5732 18.949 32.0952 20.38 32.0952 22.306V31H29.8812ZM25.1292 31.135C24.0492 31.135 23.1132 30.964 22.3212 30.622C21.5292 30.262 20.9172 29.767 20.4852 29.137C20.0712 28.507 19.8642 27.787 19.8642 26.977C19.8642 26.221 20.0442 25.537 20.4042 24.925C20.7642 24.295 21.3582 23.791 22.1862 23.413C23.0142 23.035 24.1212 22.846 25.5072 22.846H30.1782V24.52H25.5882C24.2562 24.52 23.3472 24.754 22.8612 25.222C22.3752 25.672 22.1322 26.23 22.1322 26.896C22.1322 27.652 22.4292 28.255 23.0232 28.705C23.6172 29.137 24.4362 29.353 25.4802 29.353C26.5062 29.353 27.3882 29.128 28.1262 28.678C28.8822 28.21 29.4402 27.544 29.8002 26.68L30.2592 28.246C29.8992 29.146 29.2782 29.857 28.3962 30.379C27.5322 30.883 26.4432 31.135 25.1292 31.135ZM40.6268 31L34.3358 16.744H36.7388L42.4088 29.785H41.2478L46.9988 16.744H49.2668L42.9758 31H40.6268ZM57.7484 31.135C56.2364 31.135 54.9044 30.829 53.7524 30.217C52.6184 29.587 51.7364 28.723 51.1064 27.625C50.4764 26.527 50.1614 25.276 50.1614 23.872C50.1614 22.45 50.4674 21.199 51.0794 20.119C51.6914 19.021 52.5284 18.166 53.5904 17.554C54.6704 16.924 55.8854 16.609 57.2354 16.609C58.5854 16.609 59.7824 16.915 60.8264 17.527C61.8884 18.139 62.7164 18.994 63.3104 20.092C63.9224 21.19 64.2284 22.459 64.2284 23.899C64.2284 24.007 64.2194 24.124 64.2014 24.25C64.2014 24.376 64.1924 24.493 64.1744 24.601H51.9434V22.927H62.9594L62.0414 23.548C62.0594 22.576 61.8614 21.721 61.4474 20.983C61.0334 20.227 60.4574 19.642 59.7194 19.228C58.9994 18.796 58.1714 18.58 57.2354 18.58C56.2994 18.58 55.4624 18.796 54.7244 19.228C54.0044 19.642 53.4374 20.227 53.0234 20.983C52.6094 21.739 52.4024 22.612 52.4024 23.602V23.98C52.4024 24.988 52.6274 25.879 53.0774 26.653C53.5454 27.427 54.1844 28.03 54.9944 28.462C55.8044 28.894 56.7404 29.11 57.8024 29.11C58.6664 29.11 59.4584 28.966 60.1784 28.678C60.8984 28.39 61.5194 27.94 62.0414 27.328L63.3104 28.813C62.6804 29.569 61.8884 30.145 60.9344 30.541C59.9804 30.937 58.9184 31.135 57.7484 31.135ZM80.1584 31.135C78.7544 31.135 77.6744 30.766 76.9184 30.028C76.1624 29.272 75.7844 28.201 75.7844 26.815V13.612H78.0794V26.707C78.0794 27.499 78.2774 28.111 78.6734 28.543C79.0874 28.975 79.6634 29.191 80.4014 29.191C81.2294 29.191 81.9134 28.966 82.4534 28.516L83.2094 30.163C82.8314 30.487 82.3634 30.73 81.8054 30.892C81.2654 31.054 80.7164 31.135 80.1584 31.135ZM73.3004 18.661V16.744H82.2644V18.661H73.3004ZM94.0946 16.609C95.2646 16.609 96.2816 16.834 97.1456 17.284C98.0276 17.734 98.7206 18.418 99.2246 19.336C99.7286 20.236 99.9806 21.379 99.9806 22.765V31H97.6856V23.008C97.6856 21.568 97.3346 20.488 96.6326 19.768C95.9306 19.03 94.9316 18.661 93.6356 18.661C92.6996 18.661 91.8716 18.859 91.1516 19.255C90.4496 19.633 89.9006 20.191 89.5046 20.929C89.1266 21.649 88.9376 22.54 88.9376 23.602V31H86.6426V10.966H88.9376V20.632L88.4786 19.741C88.9466 18.751 89.6666 17.986 90.6386 17.446C91.6106 16.888 92.7626 16.609 94.0946 16.609ZM111.313 31.135C109.801 31.135 108.469 30.829 107.317 30.217C106.183 29.587 105.301 28.723 104.671 27.625C104.041 26.527 103.726 25.276 103.726 23.872C103.726 22.45 104.032 21.199 104.644 20.119C105.256 19.021 106.093 18.166 107.155 17.554C108.235 16.924 109.45 16.609 110.8 16.609C112.15 16.609 113.347 16.915 114.391 17.527C115.453 18.139 116.281 18.994 116.875 20.092C117.487 21.19 117.793 22.459 117.793 23.899C117.793 24.007 117.784 24.124 117.766 24.25C117.766 24.376 117.757 24.493 117.739 24.601H105.508V22.927H116.524L115.606 23.548C115.624 22.576 115.426 21.721 115.012 20.983C114.598 20.227 114.022 19.642 113.284 19.228C112.564 18.796 111.736 18.58 110.8 18.58C109.864 18.58 109.027 18.796 108.289 19.228C107.569 19.642 107.002 20.227 106.588 20.983C106.174 21.739 105.967 22.612 105.967 23.602V23.98C105.967 24.988 106.192 25.879 106.642 26.653C107.11 27.427 107.749 28.03 108.559 28.462C109.369 28.894 110.305 29.11 111.367 29.11C112.231 29.11 113.023 28.966 113.743 28.678C114.463 28.39 115.084 27.94 115.606 27.328L116.875 28.813C116.245 29.569 115.453 30.145 114.499 30.541C113.545 30.937 112.483 31.135 111.313 31.135ZM137.854 31V27.922L137.773 27.382V22.198C137.773 21.046 137.44 20.164 136.774 19.552C136.126 18.922 135.145 18.607 133.831 18.607C132.949 18.607 132.103 18.751 131.293 19.039C130.483 19.327 129.79 19.714 129.214 20.2L128.242 18.499C128.962 17.887 129.835 17.419 130.861 17.095C131.887 16.771 132.967 16.609 134.101 16.609C136.009 16.609 137.476 17.077 138.502 18.013C139.546 18.949 140.068 20.38 140.068 22.306V31H137.854ZM133.102 31.135C132.022 31.135 131.086 30.964 130.294 30.622C129.502 30.262 128.89 29.767 128.458 29.137C128.044 28.507 127.837 27.787 127.837 26.977C127.837 26.221 128.017 25.537 128.377 24.925C128.737 24.295 129.331 23.791 130.159 23.413C130.987 23.035 132.094 22.846 133.48 22.846H138.151V24.52H133.561C132.229 24.52 131.32 24.754 130.834 25.222C130.348 25.672 130.105 26.23 130.105 26.896C130.105 27.652 130.402 28.255 130.996 28.705C131.59 29.137 132.409 29.353 133.453 29.353C134.479 29.353 135.361 29.128 136.099 28.678C136.855 28.21 137.413 27.544 137.773 26.68L138.232 28.246C137.872 29.146 137.251 29.857 136.369 30.379C135.505 30.883 134.416 31.135 133.102 31.135ZM152.616 31.135C151.392 31.135 150.285 30.865 149.295 30.325C148.305 29.767 147.522 28.948 146.946 27.868C146.388 26.788 146.109 25.456 146.109 23.872C146.109 22.27 146.397 20.938 146.973 19.876C147.567 18.796 148.35 17.986 149.322 17.446C150.312 16.888 151.41 16.609 152.616 16.609C154.002 16.609 155.235 16.915 156.315 17.527C157.395 18.139 158.241 18.985 158.853 20.065C159.483 21.145 159.798 22.414 159.798 23.872C159.798 25.312 159.483 26.581 158.853 27.679C158.241 28.759 157.395 29.605 156.315 30.217C155.235 30.829 154.002 31.135 152.616 31.135ZM145.164 31V10.966H147.459V20.713L147.189 23.845L147.351 26.977V31H145.164ZM152.454 29.11C153.408 29.11 154.254 28.894 154.992 28.462C155.748 28.03 156.351 27.418 156.801 26.626C157.251 25.834 157.476 24.916 157.476 23.872C157.476 22.81 157.251 21.892 156.801 21.118C156.351 20.326 155.748 19.714 154.992 19.282C154.254 18.85 153.408 18.634 152.454 18.634C151.5 18.634 150.645 18.85 149.889 19.282C149.133 19.714 148.53 20.326 148.08 21.118C147.63 21.892 147.405 22.81 147.405 23.872C147.405 24.916 147.63 25.834 148.08 26.626C148.53 27.418 149.133 28.03 149.889 28.462C150.645 28.894 151.5 29.11 152.454 29.11ZM163.651 31V16.744H165.946V31H163.651ZM164.785 13.828C164.335 13.828 163.957 13.684 163.651 13.396C163.345 13.09 163.192 12.721 163.192 12.289C163.192 11.857 163.345 11.497 163.651 11.209C163.957 10.903 164.335 10.75 164.785 10.75C165.235 10.75 165.613 10.894 165.919 11.182C166.225 11.452 166.378 11.803 166.378 12.235C166.378 12.685 166.225 13.063 165.919 13.369C165.631 13.675 165.253 13.828 164.785 13.828ZM171.221 31V10.966H173.516V31H171.221ZM178.792 31V16.744H181.087V31H178.792ZM179.926 13.828C179.476 13.828 179.098 13.684 178.792 13.396C178.486 13.09 178.333 12.721 178.333 12.289C178.333 11.857 178.486 11.497 178.792 11.209C179.098 10.903 179.476 10.75 179.926 10.75C180.376 10.75 180.754 10.894 181.06 11.182C181.366 11.452 181.519 11.803 181.519 12.235C181.519 12.685 181.366 13.063 181.06 13.369C180.772 13.675 180.394 13.828 179.926 13.828ZM191.087 31.135C189.683 31.135 188.603 30.766 187.847 30.028C187.091 29.272 186.713 28.201 186.713 26.815V13.612H189.008V26.707C189.008 27.499 189.206 28.111 189.602 28.543C190.016 28.975 190.592 29.191 191.33 29.191C192.158 29.191 192.842 28.966 193.382 28.516L194.138 30.163C193.76 30.487 193.292 30.73 192.734 30.892C192.194 31.054 191.645 31.135 191.087 31.135ZM184.229 18.661V16.744H193.193V18.661H184.229ZM197.686 36.373C197.02 36.373 196.372 36.265 195.742 36.049C195.112 35.833 194.572 35.509 194.122 35.077L195.121 33.349C195.481 33.691 195.877 33.952 196.309 34.132C196.741 34.33 197.209 34.429 197.713 34.429C198.343 34.429 198.874 34.258 199.306 33.916C199.738 33.574 200.143 32.98 200.521 32.134L201.439 30.136L201.682 29.812L207.379 16.744H209.647L202.627 32.566C202.231 33.52 201.781 34.276 201.277 34.834C200.773 35.41 200.224 35.806 199.63 36.022C199.054 36.256 198.406 36.373 197.686 36.373ZM201.25 31.432L194.716 16.744H197.119L202.762 29.596L201.25 31.432ZM224.346 31.135C222.942 31.135 221.862 30.766 221.106 30.028C220.35 29.272 219.972 28.201 219.972 26.815V13.612H222.267V26.707C222.267 27.499 222.465 28.111 222.861 28.543C223.275 28.975 223.851 29.191 224.589 29.191C225.417 29.191 226.101 28.966 226.641 28.516L227.397 30.163C227.019 30.487 226.551 30.73 225.993 30.892C225.453 31.054 224.904 31.135 224.346 31.135ZM217.488 18.661V16.744H226.452V18.661H217.488ZM236.296 31.135C234.892 31.135 233.632 30.829 232.516 30.217C231.418 29.587 230.545 28.723 229.897 27.625C229.267 26.527 228.952 25.276 228.952 23.872C228.952 22.45 229.267 21.199 229.897 20.119C230.545 19.021 231.418 18.166 232.516 17.554C233.614 16.924 234.874 16.609 236.296 16.609C237.7 16.609 238.96 16.924 240.076 17.554C241.192 18.166 242.065 19.012 242.695 20.092C243.325 21.172 243.64 22.432 243.64 23.872C243.64 25.276 243.325 26.527 242.695 27.625C242.065 28.723 241.192 29.587 240.076 30.217C238.96 30.829 237.7 31.135 236.296 31.135ZM236.296 29.11C237.268 29.11 238.132 28.894 238.888 28.462C239.644 28.03 240.238 27.418 240.67 26.626C241.102 25.834 241.318 24.916 241.318 23.872C241.318 22.81 241.102 21.892 240.67 21.118C240.238 20.326 239.644 19.714 238.888 19.282C238.132 18.85 237.268 18.634 236.296 18.634C235.342 18.634 234.487 18.85 233.731 19.282C232.975 19.714 232.372 20.326 231.922 21.118C231.49 21.892 231.274 22.81 231.274 23.872C231.274 24.916 231.49 25.834 231.922 26.626C232.372 27.418 232.975 28.03 233.731 28.462C234.487 28.894 235.342 29.11 236.296 29.11ZM261.04 31.135C259.528 31.135 258.196 30.829 257.044 30.217C255.91 29.587 255.028 28.723 254.398 27.625C253.768 26.527 253.453 25.276 253.453 23.872C253.453 22.45 253.759 21.199 254.371 20.119C254.983 19.021 255.82 18.166 256.882 17.554C257.962 16.924 259.177 16.609 260.527 16.609C261.877 16.609 263.074 16.915 264.118 17.527C265.18 18.139 266.008 18.994 266.602 20.092C267.214 21.19 267.52 22.459 267.52 23.899C267.52 24.007 267.511 24.124 267.493 24.25C267.493 24.376 267.484 24.493 267.466 24.601H255.235V22.927H266.251L265.333 23.548C265.351 22.576 265.153 21.721 264.739 20.983C264.325 20.227 263.749 19.642 263.011 19.228C262.291 18.796 261.463 18.58 260.527 18.58C259.591 18.58 258.754 18.796 258.016 19.228C257.296 19.642 256.729 20.227 256.315 20.983C255.901 21.739 255.694 22.612 255.694 23.602V23.98C255.694 24.988 255.919 25.879 256.369 26.653C256.837 27.427 257.476 28.03 258.286 28.462C259.096 28.894 260.032 29.11 261.094 29.11C261.958 29.11 262.75 28.966 263.47 28.678C264.19 28.39 264.811 27.94 265.333 27.328L266.602 28.813C265.972 29.569 265.18 30.145 264.226 30.541C263.272 30.937 262.21 31.135 261.04 31.135ZM277.197 31.135C275.829 31.135 274.605 30.829 273.525 30.217C272.445 29.605 271.59 28.759 270.96 27.679C270.348 26.581 270.042 25.312 270.042 23.872C270.042 22.414 270.348 21.145 270.96 20.065C271.59 18.985 272.445 18.139 273.525 17.527C274.605 16.915 275.829 16.609 277.197 16.609C278.421 16.609 279.519 16.888 280.491 17.446C281.481 17.986 282.264 18.796 282.84 19.876C283.434 20.938 283.731 22.27 283.731 23.872C283.731 25.456 283.443 26.788 282.867 27.868C282.291 28.948 281.508 29.767 280.518 30.325C279.546 30.865 278.439 31.135 277.197 31.135ZM277.386 29.11C278.34 29.11 279.195 28.894 279.951 28.462C280.707 28.03 281.301 27.418 281.733 26.626C282.183 25.834 282.408 24.916 282.408 23.872C282.408 22.81 282.183 21.892 281.733 21.118C281.301 20.326 280.707 19.714 279.951 19.282C279.195 18.85 278.34 18.634 277.386 18.634C276.432 18.634 275.577 18.85 274.821 19.282C274.065 19.714 273.462 20.326 273.012 21.118C272.58 21.892 272.364 22.81 272.364 23.872C272.364 24.916 272.58 25.834 273.012 26.626C273.462 27.418 274.065 28.03 274.821 28.462C275.577 28.894 276.432 29.11 277.386 29.11ZM282.462 31V26.977L282.624 23.845L282.354 20.713V10.966H284.676V31H282.462ZM289.905 31V16.744H292.2V31H289.905ZM291.039 13.828C290.589 13.828 290.211 13.684 289.905 13.396C289.599 13.09 289.446 12.721 289.446 12.289C289.446 11.857 289.599 11.497 289.905 11.209C290.211 10.903 290.589 10.75 291.039 10.75C291.489 10.75 291.867 10.894 292.173 11.182C292.479 11.452 292.632 11.803 292.632 12.235C292.632 12.685 292.479 13.063 292.173 13.369C291.885 13.675 291.507 13.828 291.039 13.828ZM302.201 31.135C300.797 31.135 299.717 30.766 298.961 30.028C298.205 29.272 297.827 28.201 297.827 26.815V13.612H300.122V26.707C300.122 27.499 300.32 28.111 300.716 28.543C301.13 28.975 301.706 29.191 302.444 29.191C303.272 29.191 303.956 28.966 304.496 28.516L305.252 30.163C304.874 30.487 304.406 30.73 303.848 30.892C303.308 31.054 302.759 31.135 302.201 31.135ZM295.343 18.661V16.744H304.307V18.661H295.343ZM307.842 34.969L309.138 29.704L309.435 31.108C308.949 31.108 308.544 30.955 308.22 30.649C307.914 30.343 307.761 29.947 307.761 29.461C307.761 28.957 307.914 28.552 308.22 28.246C308.544 27.94 308.931 27.787 309.381 27.787C309.867 27.787 310.254 27.949 310.542 28.273C310.848 28.597 311.001 28.993 311.001 29.461C311.001 29.623 310.983 29.785 310.947 29.947C310.929 30.109 310.893 30.289 310.839 30.487C310.785 30.685 310.704 30.937 310.596 31.243L309.381 34.969H307.842ZM320.748 31.135C319.308 31.135 318.021 30.829 316.887 30.217C315.771 29.587 314.889 28.723 314.241 27.625C313.611 26.527 313.296 25.276 313.296 23.872C313.296 22.45 313.611 21.199 314.241 20.119C314.889 19.021 315.771 18.166 316.887 17.554C318.021 16.924 319.308 16.609 320.748 16.609C321.99 16.609 323.106 16.861 324.096 17.365C325.104 17.851 325.896 18.58 326.472 19.552L324.717 20.686C324.249 19.984 323.664 19.471 322.962 19.147C322.278 18.805 321.531 18.634 320.721 18.634C319.749 18.634 318.876 18.85 318.102 19.282C317.328 19.714 316.716 20.326 316.266 21.118C315.834 21.892 315.618 22.81 315.618 23.872C315.618 24.934 315.834 25.861 316.266 26.653C316.716 27.427 317.328 28.03 318.102 28.462C318.876 28.894 319.749 29.11 320.721 29.11C321.531 29.11 322.278 28.948 322.962 28.624C323.664 28.282 324.249 27.76 324.717 27.058L326.472 28.192C325.896 29.146 325.104 29.875 324.096 30.379C323.106 30.883 321.99 31.135 320.748 31.135ZM336.068 31.135C334.844 31.135 333.773 30.91 332.855 30.46C331.955 30.01 331.244 29.335 330.722 28.435C330.218 27.517 329.966 26.365 329.966 24.979V16.744H332.288V24.736C332.288 26.176 332.639 27.265 333.341 28.003C334.043 28.723 335.033 29.083 336.311 29.083C337.247 29.083 338.057 28.894 338.741 28.516C339.443 28.12 339.983 27.553 340.361 26.815C340.739 26.077 340.928 25.195 340.928 24.169V16.744H343.223V31H341.036V27.139L341.387 28.03C340.937 29.002 340.235 29.767 339.281 30.325C338.345 30.865 337.274 31.135 336.068 31.135ZM352.451 31.135C351.263 31.135 350.138 30.973 349.076 30.649C348.014 30.325 347.186 29.92 346.592 29.434L347.564 27.625C348.158 28.057 348.905 28.426 349.805 28.732C350.705 29.02 351.641 29.164 352.613 29.164C353.873 29.164 354.782 28.975 355.34 28.597C355.916 28.219 356.204 27.706 356.204 27.058C356.204 26.572 356.033 26.194 355.691 25.924C355.367 25.654 354.935 25.447 354.395 25.303C353.855 25.159 353.261 25.042 352.613 24.952C351.965 24.844 351.308 24.718 350.642 24.574C349.994 24.412 349.4 24.196 348.86 23.926C348.32 23.638 347.888 23.251 347.564 22.765C347.24 22.279 347.078 21.622 347.078 20.794C347.078 19.984 347.303 19.264 347.753 18.634C348.221 17.986 348.887 17.491 349.751 17.149C350.633 16.789 351.677 16.609 352.883 16.609C353.819 16.609 354.755 16.726 355.691 16.96C356.645 17.194 357.419 17.518 358.013 17.932L357.014 19.741C356.384 19.327 355.709 19.03 354.989 18.85C354.287 18.67 353.576 18.58 352.856 18.58C351.668 18.58 350.786 18.787 350.21 19.201C349.634 19.597 349.346 20.101 349.346 20.713C349.346 21.217 349.508 21.613 349.832 21.901C350.174 22.189 350.615 22.414 351.155 22.576C351.695 22.72 352.289 22.846 352.937 22.954C353.585 23.044 354.233 23.17 354.881 23.332C355.529 23.476 356.123 23.683 356.663 23.953C357.221 24.223 357.662 24.601 357.986 25.087C358.31 25.555 358.472 26.194 358.472 27.004C358.472 27.85 358.229 28.588 357.743 29.218C357.275 29.83 356.591 30.307 355.691 30.649C354.791 30.973 353.711 31.135 352.451 31.135ZM366.737 31.135C365.333 31.135 364.253 30.766 363.497 30.028C362.741 29.272 362.363 28.201 362.363 26.815V13.612H364.658V26.707C364.658 27.499 364.856 28.111 365.252 28.543C365.666 28.975 366.242 29.191 366.98 29.191C367.808 29.191 368.492 28.966 369.032 28.516L369.788 30.163C369.41 30.487 368.942 30.73 368.384 30.892C367.844 31.054 367.295 31.135 366.737 31.135ZM359.879 18.661V16.744H368.843V18.661H359.879ZM378.687 31.135C377.283 31.135 376.023 30.829 374.907 30.217C373.809 29.587 372.936 28.723 372.288 27.625C371.658 26.527 371.343 25.276 371.343 23.872C371.343 22.45 371.658 21.199 372.288 20.119C372.936 19.021 373.809 18.166 374.907 17.554C376.005 16.924 377.265 16.609 378.687 16.609C380.091 16.609 381.351 16.924 382.467 17.554C383.583 18.166 384.456 19.012 385.086 20.092C385.716 21.172 386.031 22.432 386.031 23.872C386.031 25.276 385.716 26.527 385.086 27.625C384.456 28.723 383.583 29.587 382.467 30.217C381.351 30.829 380.091 31.135 378.687 31.135ZM378.687 29.11C379.659 29.11 380.523 28.894 381.279 28.462C382.035 28.03 382.629 27.418 383.061 26.626C383.493 25.834 383.709 24.916 383.709 23.872C383.709 22.81 383.493 21.892 383.061 21.118C382.629 20.326 382.035 19.714 381.279 19.282C380.523 18.85 379.659 18.634 378.687 18.634C377.733 18.634 376.878 18.85 376.122 19.282C375.366 19.714 374.763 20.326 374.313 21.118C373.881 21.892 373.665 22.81 373.665 23.872C373.665 24.916 373.881 25.834 374.313 26.626C374.763 27.418 375.366 28.03 376.122 28.462C376.878 28.894 377.733 29.11 378.687 29.11ZM407.708 16.609C408.878 16.609 409.895 16.834 410.759 17.284C411.623 17.734 412.298 18.418 412.784 19.336C413.27 20.236 413.513 21.379 413.513 22.765V31H411.218V23.008C411.218 21.568 410.876 20.488 410.192 19.768C409.526 19.03 408.581 18.661 407.357 18.661C406.457 18.661 405.665 18.859 404.981 19.255C404.297 19.633 403.775 20.191 403.415 20.929C403.055 21.649 402.875 22.54 402.875 23.602V31H400.553V23.008C400.553 21.568 400.22 20.488 399.554 19.768C398.888 19.03 397.934 18.661 396.692 18.661C395.792 18.661 395 18.859 394.316 19.255C393.65 19.633 393.128 20.191 392.75 20.929C392.39 21.649 392.21 22.54 392.21 23.602V31H389.915V16.744H392.102V20.578L391.751 19.741C392.201 18.751 392.894 17.986 393.83 17.446C394.784 16.888 395.891 16.609 397.151 16.609C398.537 16.609 399.716 16.951 400.688 17.635C401.678 18.319 402.317 19.345 402.605 20.713L401.687 20.362C402.119 19.246 402.866 18.346 403.928 17.662C404.99 16.96 406.25 16.609 407.708 16.609ZM418.632 31V16.744H420.927V31H418.632ZM419.766 13.828C419.316 13.828 418.938 13.684 418.632 13.396C418.326 13.09 418.173 12.721 418.173 12.289C418.173 11.857 418.326 11.497 418.632 11.209C418.938 10.903 419.316 10.75 419.766 10.75C420.216 10.75 420.594 10.894 420.9 11.182C421.206 11.452 421.359 11.803 421.359 12.235C421.359 12.685 421.206 13.063 420.9 13.369C420.612 13.675 420.234 13.828 419.766 13.828ZM430.171 31.135C428.983 31.135 427.858 30.973 426.796 30.649C425.734 30.325 424.906 29.92 424.312 29.434L425.284 27.625C425.878 28.057 426.625 28.426 427.525 28.732C428.425 29.02 429.361 29.164 430.333 29.164C431.593 29.164 432.502 28.975 433.06 28.597C433.636 28.219 433.924 27.706 433.924 27.058C433.924 26.572 433.753 26.194 433.411 25.924C433.087 25.654 432.655 25.447 432.115 25.303C431.575 25.159 430.981 25.042 430.333 24.952C429.685 24.844 429.028 24.718 428.362 24.574C427.714 24.412 427.12 24.196 426.58 23.926C426.04 23.638 425.608 23.251 425.284 22.765C424.96 22.279 424.798 21.622 424.798 20.794C424.798 19.984 425.023 19.264 425.473 18.634C425.941 17.986 426.607 17.491 427.471 17.149C428.353 16.789 429.397 16.609 430.603 16.609C431.539 16.609 432.475 16.726 433.411 16.96C434.365 17.194 435.139 17.518 435.733 17.932L434.734 19.741C434.104 19.327 433.429 19.03 432.709 18.85C432.007 18.67 431.296 18.58 430.576 18.58C429.388 18.58 428.506 18.787 427.93 19.201C427.354 19.597 427.066 20.101 427.066 20.713C427.066 21.217 427.228 21.613 427.552 21.901C427.894 22.189 428.335 22.414 428.875 22.576C429.415 22.72 430.009 22.846 430.657 22.954C431.305 23.044 431.953 23.17 432.601 23.332C433.249 23.476 433.843 23.683 434.383 23.953C434.941 24.223 435.382 24.601 435.706 25.087C436.03 25.555 436.192 26.194 436.192 27.004C436.192 27.85 435.949 28.588 435.463 29.218C434.995 29.83 434.311 30.307 433.411 30.649C432.511 30.973 431.431 31.135 430.171 31.135ZM445.942 31.135C444.43 31.135 443.098 30.829 441.946 30.217C440.812 29.587 439.93 28.723 439.3 27.625C438.67 26.527 438.355 25.276 438.355 23.872C438.355 22.45 438.661 21.199 439.273 20.119C439.885 19.021 440.722 18.166 441.784 17.554C442.864 16.924 444.079 16.609 445.429 16.609C446.779 16.609 447.976 16.915 449.02 17.527C450.082 18.139 450.91 18.994 451.504 20.092C452.116 21.19 452.422 22.459 452.422 23.899C452.422 24.007 452.413 24.124 452.395 24.25C452.395 24.376 452.386 24.493 452.368 24.601H440.137V22.927H451.153L450.235 23.548C450.253 22.576 450.055 21.721 449.641 20.983C449.227 20.227 448.651 19.642 447.913 19.228C447.193 18.796 446.365 18.58 445.429 18.58C444.493 18.58 443.656 18.796 442.918 19.228C442.198 19.642 441.631 20.227 441.217 20.983C440.803 21.739 440.596 22.612 440.596 23.602V23.98C440.596 24.988 440.821 25.879 441.271 26.653C441.739 27.427 442.378 28.03 443.188 28.462C443.998 28.894 444.934 29.11 445.996 29.11C446.86 29.11 447.652 28.966 448.372 28.678C449.092 28.39 449.713 27.94 450.235 27.328L451.504 28.813C450.874 29.569 450.082 30.145 449.128 30.541C448.174 30.937 447.112 31.135 445.942 31.135ZM468.811 31.189C467.569 31.189 466.453 30.982 465.463 30.568C464.491 30.154 463.726 29.587 463.168 28.867C462.61 28.129 462.331 27.283 462.331 26.329C462.331 25.501 462.511 24.745 462.871 24.061C463.249 23.359 463.843 22.684 464.653 22.036C465.481 21.37 466.561 20.686 467.893 19.984C469.009 19.372 469.882 18.85 470.512 18.418C471.142 17.968 471.583 17.545 471.835 17.149C472.105 16.735 472.24 16.303 472.24 15.853C472.24 15.187 472.015 14.656 471.565 14.26C471.115 13.846 470.467 13.639 469.621 13.639C468.739 13.639 468.046 13.864 467.542 14.314C467.038 14.764 466.786 15.34 466.786 16.042C466.786 16.402 466.849 16.744 466.975 17.068C467.101 17.392 467.326 17.761 467.65 18.175C467.974 18.571 468.424 19.075 469 19.687L479.017 29.758L477.694 31.297L467.164 20.659C466.534 20.029 466.039 19.462 465.679 18.958C465.319 18.454 465.058 17.977 464.896 17.527C464.752 17.059 464.68 16.582 464.68 16.096C464.68 15.268 464.878 14.539 465.274 13.909C465.688 13.279 466.264 12.793 467.002 12.451C467.758 12.109 468.631 11.938 469.621 11.938C470.557 11.938 471.358 12.091 472.024 12.397C472.708 12.703 473.239 13.144 473.617 13.72C474.013 14.296 474.211 14.989 474.211 15.799C474.211 16.519 474.04 17.185 473.698 17.797C473.356 18.391 472.798 18.976 472.024 19.552C471.25 20.11 470.215 20.731 468.919 21.415C467.821 22.009 466.948 22.558 466.3 23.062C465.67 23.548 465.22 24.034 464.95 24.52C464.698 24.988 464.572 25.51 464.572 26.086C464.572 26.716 464.752 27.274 465.112 27.76C465.49 28.246 466.003 28.624 466.651 28.894C467.317 29.146 468.091 29.272 468.973 29.272C470.197 29.272 471.295 29.011 472.267 28.489C473.257 27.967 474.085 27.184 474.751 26.14C475.417 25.078 475.894 23.764 476.182 22.198L478.045 22.792C477.703 24.592 477.1 26.122 476.236 27.382C475.39 28.624 474.337 29.569 473.077 30.217C471.817 30.865 470.395 31.189 468.811 31.189ZM496.846 31.135C495.64 31.135 494.542 30.865 493.552 30.325C492.58 29.767 491.797 28.948 491.203 27.868C490.627 26.788 490.339 25.456 490.339 23.872C490.339 22.288 490.618 20.956 491.176 19.876C491.752 18.796 492.535 17.986 493.525 17.446C494.515 16.888 495.622 16.609 496.846 16.609C498.232 16.609 499.465 16.915 500.545 17.527C501.625 18.139 502.471 18.994 503.083 20.092C503.713 21.172 504.028 22.432 504.028 23.872C504.028 25.33 503.713 26.599 503.083 27.679C502.471 28.759 501.625 29.605 500.545 30.217C499.465 30.829 498.232 31.135 496.846 31.135ZM489.394 36.238V16.744H491.581V20.794L491.419 23.899L491.689 27.031V36.238H489.394ZM496.684 29.11C497.638 29.11 498.484 28.894 499.222 28.462C499.978 28.03 500.581 27.418 501.031 26.626C501.481 25.834 501.706 24.916 501.706 23.872C501.706 22.81 501.481 21.892 501.031 21.118C500.581 20.326 499.978 19.714 499.222 19.282C498.484 18.85 497.638 18.634 496.684 18.634C495.73 18.634 494.875 18.85 494.119 19.282C493.363 19.714 492.76 20.326 492.31 21.118C491.86 21.892 491.635 22.81 491.635 23.872C491.635 24.916 491.86 25.834 492.31 26.626C492.76 27.418 493.363 28.03 494.119 28.462C494.875 28.894 495.73 29.11 496.684 29.11ZM507.881 31V16.744H510.068V20.632L509.852 19.795C510.248 18.751 510.914 17.959 511.85 17.419C512.786 16.879 513.947 16.609 515.333 16.609V18.85C515.225 18.832 515.126 18.823 515.036 18.823C514.964 18.823 514.883 18.823 514.793 18.823C513.371 18.823 512.246 19.255 511.418 20.119C510.59 20.965 510.176 22.198 510.176 23.818V31H507.881ZM524.878 31.135C523.366 31.135 522.034 30.829 520.882 30.217C519.748 29.587 518.866 28.723 518.236 27.625C517.606 26.527 517.291 25.276 517.291 23.872C517.291 22.45 517.597 21.199 518.209 20.119C518.821 19.021 519.658 18.166 520.72 17.554C521.8 16.924 523.015 16.609 524.365 16.609C525.715 16.609 526.912 16.915 527.956 17.527C529.018 18.139 529.846 18.994 530.44 20.092C531.052 21.19 531.358 22.459 531.358 23.899C531.358 24.007 531.349 24.124 531.331 24.25C531.331 24.376 531.322 24.493 531.304 24.601H519.073V22.927H530.089L529.171 23.548C529.189 22.576 528.991 21.721 528.577 20.983C528.163 20.227 527.587 19.642 526.849 19.228C526.129 18.796 525.301 18.58 524.365 18.58C523.429 18.58 522.592 18.796 521.854 19.228C521.134 19.642 520.567 20.227 520.153 20.983C519.739 21.739 519.532 22.612 519.532 23.602V23.98C519.532 24.988 519.757 25.879 520.207 26.653C520.675 27.427 521.314 28.03 522.124 28.462C522.934 28.894 523.87 29.11 524.932 29.11C525.796 29.11 526.588 28.966 527.308 28.678C528.028 28.39 528.649 27.94 529.171 27.328L530.44 28.813C529.81 29.569 529.018 30.145 528.064 30.541C527.11 30.937 526.048 31.135 524.878 31.135ZM538.691 31L532.4 16.744H534.803L540.473 29.785H539.312L545.063 16.744H547.331L541.04 31H538.691ZM549.998 31V16.744H552.293V31H549.998ZM551.132 13.828C550.682 13.828 550.304 13.684 549.998 13.396C549.692 13.09 549.539 12.721 549.539 12.289C549.539 11.857 549.692 11.497 549.998 11.209C550.304 10.903 550.682 10.75 551.132 10.75C551.582 10.75 551.96 10.894 552.266 11.182C552.572 11.452 552.725 11.803 552.725 12.235C552.725 12.685 552.572 13.063 552.266 13.369C551.978 13.675 551.6 13.828 551.132 13.828ZM563.779 31.135C562.267 31.135 560.935 30.829 559.783 30.217C558.649 29.587 557.767 28.723 557.137 27.625C556.507 26.527 556.192 25.276 556.192 23.872C556.192 22.45 556.498 21.199 557.11 20.119C557.722 19.021 558.559 18.166 559.621 17.554C560.701 16.924 561.916 16.609 563.266 16.609C564.616 16.609 565.813 16.915 566.857 17.527C567.919 18.139 568.747 18.994 569.341 20.092C569.953 21.19 570.259 22.459 570.259 23.899C570.259 24.007 570.25 24.124 570.232 24.25C570.232 24.376 570.223 24.493 570.205 24.601H557.974V22.927H568.99L568.072 23.548C568.09 22.576 567.892 21.721 567.478 20.983C567.064 20.227 566.488 19.642 565.75 19.228C565.03 18.796 564.202 18.58 563.266 18.58C562.33 18.58 561.493 18.796 560.755 19.228C560.035 19.642 559.468 20.227 559.054 20.983C558.64 21.739 558.433 22.612 558.433 23.602V23.98C558.433 24.988 558.658 25.879 559.108 26.653C559.576 27.427 560.215 28.03 561.025 28.462C561.835 28.894 562.771 29.11 563.833 29.11C564.697 29.11 565.489 28.966 566.209 28.678C566.929 28.39 567.55 27.94 568.072 27.328L569.341 28.813C568.711 29.569 567.919 30.145 566.965 30.541C566.011 30.937 564.949 31.135 563.779 31.135ZM576.836 31L571.517 16.744H573.704L578.483 29.785H577.457L582.398 16.744H584.369L589.229 29.785H588.23L593.09 16.744H595.169L589.823 31H587.636L583.019 18.931H583.694L579.023 31H576.836ZM614.212 31V27.922L614.131 27.382V22.198C614.131 21.046 613.798 20.164 613.132 19.552C612.484 18.922 611.503 18.607 610.189 18.607C609.307 18.607 608.461 18.751 607.651 19.039C606.841 19.327 606.148 19.714 605.572 20.2L604.6 18.499C605.32 17.887 606.193 17.419 607.219 17.095C608.245 16.771 609.325 16.609 610.459 16.609C612.367 16.609 613.834 17.077 614.86 18.013C615.904 18.949 616.426 20.38 616.426 22.306V31H614.212ZM609.46 31.135C608.38 31.135 607.444 30.964 606.652 30.622C605.86 30.262 605.248 29.767 604.816 29.137C604.402 28.507 604.195 27.787 604.195 26.977C604.195 26.221 604.375 25.537 604.735 24.925C605.095 24.295 605.689 23.791 606.517 23.413C607.345 23.035 608.452 22.846 609.838 22.846H614.509V24.52H609.919C608.587 24.52 607.678 24.754 607.192 25.222C606.706 25.672 606.463 26.23 606.463 26.896C606.463 27.652 606.76 28.255 607.354 28.705C607.948 29.137 608.767 29.353 609.811 29.353C610.837 29.353 611.719 29.128 612.457 28.678C613.213 28.21 613.771 27.544 614.131 26.68L614.59 28.246C614.23 29.146 613.609 29.857 612.727 30.379C611.863 30.883 610.774 31.135 609.46 31.135ZM627.3 31.135C625.932 31.135 624.708 30.829 623.628 30.217C622.548 29.605 621.693 28.759 621.063 27.679C620.451 26.581 620.145 25.312 620.145 23.872C620.145 22.414 620.451 21.145 621.063 20.065C621.693 18.985 622.548 18.139 623.628 17.527C624.708 16.915 625.932 16.609 627.3 16.609C628.524 16.609 629.622 16.888 630.594 17.446C631.584 17.986 632.367 18.796 632.943 19.876C633.537 20.938 633.834 22.27 633.834 23.872C633.834 25.456 633.546 26.788 632.97 27.868C632.394 28.948 631.611 29.767 630.621 30.325C629.649 30.865 628.542 31.135 627.3 31.135ZM627.489 29.11C628.443 29.11 629.298 28.894 630.054 28.462C630.81 28.03 631.404 27.418 631.836 26.626C632.286 25.834 632.511 24.916 632.511 23.872C632.511 22.81 632.286 21.892 631.836 21.118C631.404 20.326 630.81 19.714 630.054 19.282C629.298 18.85 628.443 18.634 627.489 18.634C626.535 18.634 625.68 18.85 624.924 19.282C624.168 19.714 623.565 20.326 623.115 21.118C622.683 21.892 622.467 22.81 622.467 23.872C622.467 24.916 622.683 25.834 623.115 26.626C623.565 27.418 624.168 28.03 624.924 28.462C625.68 28.894 626.535 29.11 627.489 29.11ZM632.565 31V26.977L632.727 23.845L632.457 20.713V10.966H634.779V31H632.565ZM643.978 31.135C642.79 31.135 641.665 30.973 640.603 30.649C639.541 30.325 638.713 29.92 638.119 29.434L639.091 27.625C639.685 28.057 640.432 28.426 641.332 28.732C642.232 29.02 643.168 29.164 644.14 29.164C645.4 29.164 646.309 28.975 646.867 28.597C647.443 28.219 647.731 27.706 647.731 27.058C647.731 26.572 647.56 26.194 647.218 25.924C646.894 25.654 646.462 25.447 645.922 25.303C645.382 25.159 644.788 25.042 644.14 24.952C643.492 24.844 642.835 24.718 642.169 24.574C641.521 24.412 640.927 24.196 640.387 23.926C639.847 23.638 639.415 23.251 639.091 22.765C638.767 22.279 638.605 21.622 638.605 20.794C638.605 19.984 638.83 19.264 639.28 18.634C639.748 17.986 640.414 17.491 641.278 17.149C642.16 16.789 643.204 16.609 644.41 16.609C645.346 16.609 646.282 16.726 647.218 16.96C648.172 17.194 648.946 17.518 649.54 17.932L648.541 19.741C647.911 19.327 647.236 19.03 646.516 18.85C645.814 18.67 645.103 18.58 644.383 18.58C643.195 18.58 642.313 18.787 641.737 19.201C641.161 19.597 640.873 20.101 640.873 20.713C640.873 21.217 641.035 21.613 641.359 21.901C641.701 22.189 642.142 22.414 642.682 22.576C643.222 22.72 643.816 22.846 644.464 22.954C645.112 23.044 645.76 23.17 646.408 23.332C647.056 23.476 647.65 23.683 648.19 23.953C648.748 24.223 649.189 24.601 649.513 25.087C649.837 25.555 649.999 26.194 649.999 27.004C649.999 27.85 649.756 28.588 649.27 29.218C648.802 29.83 648.118 30.307 647.218 30.649C646.318 30.973 645.238 31.135 643.978 31.135ZM5.508 74L0.189 59.744H2.376L7.155 72.785H6.129L11.07 59.744H13.041L17.901 72.785H16.902L21.762 59.744H23.841L18.495 74H16.308L11.691 61.931H12.366L7.695 74H5.508ZM26.7205 74V59.744H29.0155V74H26.7205ZM27.8545 56.828C27.4045 56.828 27.0265 56.684 26.7205 56.396C26.4145 56.09 26.2615 55.721 26.2615 55.289C26.2615 54.857 26.4145 54.497 26.7205 54.209C27.0265 53.903 27.4045 53.75 27.8545 53.75C28.3045 53.75 28.6825 53.894 28.9885 54.182C29.2945 54.452 29.4475 54.803 29.4475 55.235C29.4475 55.685 29.2945 56.063 28.9885 56.369C28.7005 56.675 28.3225 56.828 27.8545 56.828ZM39.0161 74.135C37.6121 74.135 36.5321 73.766 35.7761 73.028C35.0201 72.272 34.6421 71.201 34.6421 69.815V56.612H36.9371V69.707C36.9371 70.499 37.1351 71.111 37.5311 71.543C37.9451 71.975 38.5211 72.191 39.2591 72.191C40.0871 72.191 40.7711 71.966 41.3111 71.516L42.0671 73.163C41.6891 73.487 41.2211 73.73 40.6631 73.892C40.1231 74.054 39.5741 74.135 39.0161 74.135ZM32.1581 61.661V59.744H41.1221V61.661H32.1581ZM52.9523 59.609C54.1223 59.609 55.1393 59.834 56.0033 60.284C56.8853 60.734 57.5783 61.418 58.0823 62.336C58.5863 63.236 58.8383 64.379 58.8383 65.765V74H56.5433V66.008C56.5433 64.568 56.1923 63.488 55.4903 62.768C54.7883 62.03 53.7893 61.661 52.4933 61.661C51.5573 61.661 50.7293 61.859 50.0093 62.255C49.3073 62.633 48.7583 63.191 48.3623 63.929C47.9843 64.649 47.7953 65.54 47.7953 66.602V74H45.5003V53.966H47.7953V63.632L47.3363 62.741C47.8043 61.751 48.5243 60.986 49.4963 60.446C50.4683 59.888 51.6203 59.609 52.9523 59.609ZM77.2343 74.135C75.8303 74.135 74.5703 73.829 73.4543 73.217C72.3563 72.587 71.4833 71.723 70.8353 70.625C70.2053 69.527 69.8903 68.276 69.8903 66.872C69.8903 65.45 70.2053 64.199 70.8353 63.119C71.4833 62.021 72.3563 61.166 73.4543 60.554C74.5523 59.924 75.8123 59.609 77.2343 59.609C78.6383 59.609 79.8983 59.924 81.0143 60.554C82.1303 61.166 83.0033 62.012 83.6333 63.092C84.2633 64.172 84.5783 65.432 84.5783 66.872C84.5783 68.276 84.2633 69.527 83.6333 70.625C83.0033 71.723 82.1303 72.587 81.0143 73.217C79.8983 73.829 78.6383 74.135 77.2343 74.135ZM77.2343 72.11C78.2063 72.11 79.0703 71.894 79.8263 71.462C80.5823 71.03 81.1763 70.418 81.6083 69.626C82.0403 68.834 82.2563 67.916 82.2563 66.872C82.2563 65.81 82.0403 64.892 81.6083 64.118C81.1763 63.326 80.5823 62.714 79.8263 62.282C79.0703 61.85 78.2063 61.634 77.2343 61.634C76.2803 61.634 75.4253 61.85 74.6693 62.282C73.9133 62.714 73.3103 63.326 72.8603 64.118C72.4283 64.892 72.2123 65.81 72.2123 66.872C72.2123 67.916 72.4283 68.834 72.8603 69.626C73.3103 70.418 73.9133 71.03 74.6693 71.462C75.4253 71.894 76.2803 72.11 77.2343 72.11ZM94.4019 74.135C93.1779 74.135 92.1069 73.91 91.1889 73.46C90.2889 73.01 89.5779 72.335 89.0559 71.435C88.5519 70.517 88.2999 69.365 88.2999 67.979V59.744H90.6219V67.736C90.6219 69.176 90.9729 70.265 91.6749 71.003C92.3769 71.723 93.3669 72.083 94.6449 72.083C95.5809 72.083 96.3909 71.894 97.0749 71.516C97.7769 71.12 98.3169 70.553 98.6949 69.815C99.0729 69.077 99.2619 68.195 99.2619 67.169V59.744H101.557V74H99.3699V70.139L99.7209 71.03C99.2709 72.002 98.5689 72.767 97.6149 73.325C96.6789 73.865 95.6079 74.135 94.4019 74.135ZM106.817 74V59.744H109.004V63.632L108.788 62.795C109.184 61.751 109.85 60.959 110.786 60.419C111.722 59.879 112.883 59.609 114.269 59.609V61.85C114.161 61.832 114.062 61.823 113.972 61.823C113.9 61.823 113.819 61.823 113.729 61.823C112.307 61.823 111.182 62.255 110.354 63.119C109.526 63.965 109.112 65.198 109.112 66.818V74H106.817ZM2.565 117V96.966H4.86V117H2.565ZM10.1355 117V102.744H12.4305V117H10.1355ZM11.2695 99.828C10.8195 99.828 10.4415 99.684 10.1355 99.396C9.82955 99.09 9.67655 98.721 9.67655 98.289C9.67655 97.857 9.82955 97.497 10.1355 97.209C10.4415 96.903 10.8195 96.75 11.2695 96.75C11.7195 96.75 12.0975 96.894 12.4035 97.182C12.7095 97.452 12.8625 97.803 12.8625 98.235C12.8625 98.685 12.7095 99.063 12.4035 99.369C12.1155 99.675 11.7375 99.828 11.2695 99.828ZM21.4051 117L15.1141 102.744H17.5171L23.1871 115.785H22.0261L27.7771 102.744H30.0451L23.7541 117H21.4051ZM38.5267 117.135C37.0147 117.135 35.6827 116.829 34.5307 116.217C33.3967 115.587 32.5147 114.723 31.8847 113.625C31.2547 112.527 30.9397 111.276 30.9397 109.872C30.9397 108.45 31.2457 107.199 31.8577 106.119C32.4697 105.021 33.3067 104.166 34.3687 103.554C35.4487 102.924 36.6637 102.609 38.0137 102.609C39.3637 102.609 40.5607 102.915 41.6047 103.527C42.6667 104.139 43.4947 104.994 44.0887 106.092C44.7007 107.19 45.0067 108.459 45.0067 109.899C45.0067 110.007 44.9977 110.124 44.9797 110.25C44.9797 110.376 44.9707 110.493 44.9527 110.601H32.7217V108.927H43.7377L42.8197 109.548C42.8377 108.576 42.6397 107.721 42.2257 106.983C41.8117 106.227 41.2357 105.642 40.4977 105.228C39.7777 104.796 38.9497 104.58 38.0137 104.58C37.0777 104.58 36.2407 104.796 35.5027 105.228C34.7827 105.642 34.2157 106.227 33.8017 106.983C33.3877 107.739 33.1807 108.612 33.1807 109.602V109.98C33.1807 110.988 33.4057 111.879 33.8557 112.653C34.3237 113.427 34.9627 114.03 35.7727 114.462C36.5827 114.894 37.5187 115.11 38.5807 115.11C39.4447 115.11 40.2367 114.966 40.9567 114.678C41.6767 114.39 42.2977 113.94 42.8197 113.328L44.0887 114.813C43.4587 115.569 42.6667 116.145 41.7127 116.541C40.7587 116.937 39.6967 117.135 38.5267 117.135ZM61.9897 117.135C60.6217 117.135 59.3977 116.829 58.3177 116.217C57.2377 115.605 56.3827 114.759 55.7527 113.679C55.1407 112.599 54.8347 111.33 54.8347 109.872C54.8347 108.432 55.1407 107.172 55.7527 106.092C56.3827 104.994 57.2377 104.139 58.3177 103.527C59.3977 102.915 60.6217 102.609 61.9897 102.609C63.2317 102.609 64.3387 102.888 65.3107 103.446C66.3007 103.986 67.0837 104.796 67.6597 105.876C68.2357 106.956 68.5237 108.288 68.5237 109.872C68.5237 111.456 68.2267 112.788 67.6327 113.868C67.0567 114.948 66.2737 115.767 65.2837 116.325C64.3117 116.865 63.2137 117.135 61.9897 117.135ZM62.1787 115.11C63.1327 115.11 63.9877 114.894 64.7437 114.462C65.4997 114.03 66.0937 113.418 66.5257 112.626C66.9757 111.834 67.2007 110.916 67.2007 109.872C67.2007 108.81 66.9757 107.892 66.5257 107.118C66.0937 106.326 65.4997 105.714 64.7437 105.282C63.9877 104.85 63.1327 104.634 62.1787 104.634C61.2247 104.634 60.3697 104.85 59.6137 105.282C58.8577 105.714 58.2547 106.326 57.8047 107.118C57.3727 107.892 57.1567 108.81 57.1567 109.872C57.1567 110.916 57.3727 111.834 57.8047 112.626C58.2547 113.418 58.8577 114.03 59.6137 114.462C60.3697 114.894 61.2247 115.11 62.1787 115.11ZM67.1467 122.238V113.031L67.4167 109.899L67.2547 106.794V102.744H69.4687V122.238H67.1467ZM80.6382 117.135C79.4142 117.135 78.3432 116.91 77.4252 116.46C76.5252 116.01 75.8142 115.335 75.2922 114.435C74.7882 113.517 74.5362 112.365 74.5362 110.979V102.744H76.8582V110.736C76.8582 112.176 77.2092 113.265 77.9112 114.003C78.6132 114.723 79.6032 115.083 80.8812 115.083C81.8172 115.083 82.6272 114.894 83.3112 114.516C84.0132 114.12 84.5532 113.553 84.9312 112.815C85.3092 112.077 85.4982 111.195 85.4982 110.169V102.744H87.7932V117H85.6062V113.139L85.9572 114.03C85.5072 115.002 84.8052 115.767 83.8512 116.325C82.9152 116.865 81.8442 117.135 80.6382 117.135ZM99.02 117.135C97.616 117.135 96.356 116.829 95.24 116.217C94.142 115.587 93.269 114.723 92.621 113.625C91.991 112.527 91.676 111.276 91.676 109.872C91.676 108.45 91.991 107.199 92.621 106.119C93.269 105.021 94.142 104.166 95.24 103.554C96.338 102.924 97.598 102.609 99.02 102.609C100.424 102.609 101.684 102.924 102.8 103.554C103.916 104.166 104.789 105.012 105.419 106.092C106.049 107.172 106.364 108.432 106.364 109.872C106.364 111.276 106.049 112.527 105.419 113.625C104.789 114.723 103.916 115.587 102.8 116.217C101.684 116.829 100.424 117.135 99.02 117.135ZM99.02 115.11C99.992 115.11 100.856 114.894 101.612 114.462C102.368 114.03 102.962 113.418 103.394 112.626C103.826 111.834 104.042 110.916 104.042 109.872C104.042 108.81 103.826 107.892 103.394 107.118C102.962 106.326 102.368 105.714 101.612 105.282C100.856 104.85 99.992 104.634 99.02 104.634C98.066 104.634 97.211 104.85 96.455 105.282C95.699 105.714 95.096 106.326 94.646 107.118C94.214 107.892 93.998 108.81 93.998 109.872C93.998 110.916 94.214 111.834 94.646 112.626C95.096 113.418 95.699 114.03 96.455 114.462C97.211 114.894 98.066 115.11 99.02 115.11ZM114.973 117.135C113.569 117.135 112.489 116.766 111.733 116.028C110.977 115.272 110.599 114.201 110.599 112.815V99.612H112.894V112.707C112.894 113.499 113.092 114.111 113.488 114.543C113.902 114.975 114.478 115.191 115.216 115.191C116.044 115.191 116.728 114.966 117.268 114.516L118.024 116.163C117.646 116.487 117.178 116.73 116.62 116.892C116.08 117.054 115.531 117.135 114.973 117.135ZM108.115 104.661V102.744H117.079V104.661H108.115ZM130.313 117V113.922L130.232 113.382V108.198C130.232 107.046 129.899 106.164 129.233 105.552C128.585 104.922 127.604 104.607 126.29 104.607C125.408 104.607 124.562 104.751 123.752 105.039C122.942 105.327 122.249 105.714 121.673 106.2L120.701 104.499C121.421 103.887 122.294 103.419 123.32 103.095C124.346 102.771 125.426 102.609 126.56 102.609C128.468 102.609 129.935 103.077 130.961 104.013C132.005 104.949 132.527 106.38 132.527 108.306V117H130.313ZM125.561 117.135C124.481 117.135 123.545 116.964 122.753 116.622C121.961 116.262 121.349 115.767 120.917 115.137C120.503 114.507 120.296 113.787 120.296 112.977C120.296 112.221 120.476 111.537 120.836 110.925C121.196 110.295 121.79 109.791 122.618 109.413C123.446 109.035 124.553 108.846 125.939 108.846H130.61V110.52H126.02C124.688 110.52 123.779 110.754 123.293 111.222C122.807 111.672 122.564 112.23 122.564 112.896C122.564 113.652 122.861 114.255 123.455 114.705C124.049 115.137 124.868 115.353 125.912 115.353C126.938 115.353 127.82 115.128 128.558 114.678C129.314 114.21 129.872 113.544 130.232 112.68L130.691 114.246C130.331 115.146 129.71 115.857 128.828 116.379C127.964 116.883 126.875 117.135 125.561 117.135ZM142.348 117.135C140.944 117.135 139.864 116.766 139.108 116.028C138.352 115.272 137.974 114.201 137.974 112.815V99.612H140.269V112.707C140.269 113.499 140.467 114.111 140.863 114.543C141.277 114.975 141.853 115.191 142.591 115.191C143.419 115.191 144.103 114.966 144.643 114.516L145.399 116.163C145.021 116.487 144.553 116.73 143.995 116.892C143.455 117.054 142.906 117.135 142.348 117.135ZM135.49 104.661V102.744H144.454V104.661H135.49ZM148.832 117V102.744H151.127V117H148.832ZM149.966 99.828C149.516 99.828 149.138 99.684 148.832 99.396C148.526 99.09 148.373 98.721 148.373 98.289C148.373 97.857 148.526 97.497 148.832 97.209C149.138 96.903 149.516 96.75 149.966 96.75C150.416 96.75 150.794 96.894 151.1 97.182C151.406 97.452 151.559 97.803 151.559 98.235C151.559 98.685 151.406 99.063 151.1 99.369C150.812 99.675 150.434 99.828 149.966 99.828ZM162.37 117.135C160.966 117.135 159.706 116.829 158.59 116.217C157.492 115.587 156.619 114.723 155.971 113.625C155.341 112.527 155.026 111.276 155.026 109.872C155.026 108.45 155.341 107.199 155.971 106.119C156.619 105.021 157.492 104.166 158.59 103.554C159.688 102.924 160.948 102.609 162.37 102.609C163.774 102.609 165.034 102.924 166.15 103.554C167.266 104.166 168.139 105.012 168.769 106.092C169.399 107.172 169.714 108.432 169.714 109.872C169.714 111.276 169.399 112.527 168.769 113.625C168.139 114.723 167.266 115.587 166.15 116.217C165.034 116.829 163.774 117.135 162.37 117.135ZM162.37 115.11C163.342 115.11 164.206 114.894 164.962 114.462C165.718 114.03 166.312 113.418 166.744 112.626C167.176 111.834 167.392 110.916 167.392 109.872C167.392 108.81 167.176 107.892 166.744 107.118C166.312 106.326 165.718 105.714 164.962 105.282C164.206 104.85 163.342 104.634 162.37 104.634C161.416 104.634 160.561 104.85 159.805 105.282C159.049 105.714 158.446 106.326 157.996 107.118C157.564 107.892 157.348 108.81 157.348 109.872C157.348 110.916 157.564 111.834 157.996 112.626C158.446 113.418 159.049 114.03 159.805 114.462C160.561 114.894 161.416 115.11 162.37 115.11ZM181.049 102.609C182.219 102.609 183.236 102.834 184.1 103.284C184.982 103.734 185.675 104.418 186.179 105.336C186.683 106.236 186.935 107.379 186.935 108.765V117H184.64V109.008C184.64 107.568 184.289 106.488 183.587 105.768C182.885 105.03 181.886 104.661 180.59 104.661C179.654 104.661 178.826 104.859 178.106 105.255C177.404 105.633 176.855 106.191 176.459 106.929C176.081 107.649 175.892 108.54 175.892 109.602V117H173.597V102.744H175.784V106.632L175.433 105.741C175.901 104.751 176.621 103.986 177.593 103.446C178.565 102.888 179.717 102.609 181.049 102.609ZM199.364 117V102.744H201.551V106.632L201.335 105.795C201.731 104.751 202.397 103.959 203.333 103.419C204.269 102.879 205.43 102.609 206.816 102.609V104.85C206.708 104.832 206.609 104.823 206.519 104.823C206.447 104.823 206.366 104.823 206.276 104.823C204.854 104.823 203.729 105.255 202.901 106.119C202.073 106.965 201.659 108.198 201.659 109.818V117H199.364ZM216.362 117.135C214.85 117.135 213.518 116.829 212.366 116.217C211.232 115.587 210.35 114.723 209.72 113.625C209.09 112.527 208.775 111.276 208.775 109.872C208.775 108.45 209.081 107.199 209.693 106.119C210.305 105.021 211.142 104.166 212.204 103.554C213.284 102.924 214.499 102.609 215.849 102.609C217.199 102.609 218.396 102.915 219.44 103.527C220.502 104.139 221.33 104.994 221.924 106.092C222.536 107.19 222.842 108.459 222.842 109.899C222.842 110.007 222.833 110.124 222.815 110.25C222.815 110.376 222.806 110.493 222.788 110.601H210.557V108.927H221.573L220.655 109.548C220.673 108.576 220.475 107.721 220.061 106.983C219.647 106.227 219.071 105.642 218.333 105.228C217.613 104.796 216.785 104.58 215.849 104.58C214.913 104.58 214.076 104.796 213.338 105.228C212.618 105.642 212.051 106.227 211.637 106.983C211.223 107.739 211.016 108.612 211.016 109.602V109.98C211.016 110.988 211.241 111.879 211.691 112.653C212.159 113.427 212.798 114.03 213.608 114.462C214.418 114.894 215.354 115.11 216.416 115.11C217.28 115.11 218.072 114.966 218.792 114.678C219.512 114.39 220.133 113.94 220.655 113.328L221.924 114.813C221.294 115.569 220.502 116.145 219.548 116.541C218.594 116.937 217.532 117.135 216.362 117.135ZM230.709 117.135C229.521 117.135 228.396 116.973 227.334 116.649C226.272 116.325 225.444 115.92 224.85 115.434L225.822 113.625C226.416 114.057 227.163 114.426 228.063 114.732C228.963 115.02 229.899 115.164 230.871 115.164C232.131 115.164 233.04 114.975 233.598 114.597C234.174 114.219 234.462 113.706 234.462 113.058C234.462 112.572 234.291 112.194 233.949 111.924C233.625 111.654 233.193 111.447 232.653 111.303C232.113 111.159 231.519 111.042 230.871 110.952C230.223 110.844 229.566 110.718 228.9 110.574C228.252 110.412 227.658 110.196 227.118 109.926C226.578 109.638 226.146 109.251 225.822 108.765C225.498 108.279 225.336 107.622 225.336 106.794C225.336 105.984 225.561 105.264 226.011 104.634C226.479 103.986 227.145 103.491 228.009 103.149C228.891 102.789 229.935 102.609 231.141 102.609C232.077 102.609 233.013 102.726 233.949 102.96C234.903 103.194 235.677 103.518 236.271 103.932L235.272 105.741C234.642 105.327 233.967 105.03 233.247 104.85C232.545 104.67 231.834 104.58 231.114 104.58C229.926 104.58 229.044 104.787 228.468 105.201C227.892 105.597 227.604 106.101 227.604 106.713C227.604 107.217 227.766 107.613 228.09 107.901C228.432 108.189 228.873 108.414 229.413 108.576C229.953 108.72 230.547 108.846 231.195 108.954C231.843 109.044 232.491 109.17 233.139 109.332C233.787 109.476 234.381 109.683 234.921 109.953C235.479 110.223 235.92 110.601 236.244 111.087C236.568 111.555 236.73 112.194 236.73 113.004C236.73 113.85 236.487 114.588 236.001 115.218C235.533 115.83 234.849 116.307 233.949 116.649C233.049 116.973 231.969 117.135 230.709 117.135ZM246.209 117.135C244.985 117.135 243.914 116.91 242.996 116.46C242.096 116.01 241.385 115.335 240.863 114.435C240.359 113.517 240.107 112.365 240.107 110.979V102.744H242.429V110.736C242.429 112.176 242.78 113.265 243.482 114.003C244.184 114.723 245.174 115.083 246.452 115.083C247.388 115.083 248.198 114.894 248.882 114.516C249.584 114.12 250.124 113.553 250.502 112.815C250.88 112.077 251.069 111.195 251.069 110.169V102.744H253.364V117H251.177V113.139L251.528 114.03C251.078 115.002 250.376 115.767 249.422 116.325C248.486 116.865 247.415 117.135 246.209 117.135ZM258.624 117V96.966H260.919V117H258.624ZM271.157 117.135C269.753 117.135 268.673 116.766 267.917 116.028C267.161 115.272 266.783 114.201 266.783 112.815V99.612H269.078V112.707C269.078 113.499 269.276 114.111 269.672 114.543C270.086 114.975 270.662 115.191 271.4 115.191C272.228 115.191 272.912 114.966 273.452 114.516L274.208 116.163C273.83 116.487 273.362 116.73 272.804 116.892C272.264 117.054 271.715 117.135 271.157 117.135ZM264.299 104.661V102.744H273.263V104.661H264.299ZM281.61 117.135C280.422 117.135 279.297 116.973 278.235 116.649C277.173 116.325 276.345 115.92 275.751 115.434L276.723 113.625C277.317 114.057 278.064 114.426 278.964 114.732C279.864 115.02 280.8 115.164 281.772 115.164C283.032 115.164 283.941 114.975 284.499 114.597C285.075 114.219 285.363 113.706 285.363 113.058C285.363 112.572 285.192 112.194 284.85 111.924C284.526 111.654 284.094 111.447 283.554 111.303C283.014 111.159 282.42 111.042 281.772 110.952C281.124 110.844 280.467 110.718 279.801 110.574C279.153 110.412 278.559 110.196 278.019 109.926C277.479 109.638 277.047 109.251 276.723 108.765C276.399 108.279 276.237 107.622 276.237 106.794C276.237 105.984 276.462 105.264 276.912 104.634C277.38 103.986 278.046 103.491 278.91 103.149C279.792 102.789 280.836 102.609 282.042 102.609C282.978 102.609 283.914 102.726 284.85 102.96C285.804 103.194 286.578 103.518 287.172 103.932L286.173 105.741C285.543 105.327 284.868 105.03 284.148 104.85C283.446 104.67 282.735 104.58 282.015 104.58C280.827 104.58 279.945 104.787 279.369 105.201C278.793 105.597 278.505 106.101 278.505 106.713C278.505 107.217 278.667 107.613 278.991 107.901C279.333 108.189 279.774 108.414 280.314 108.576C280.854 108.72 281.448 108.846 282.096 108.954C282.744 109.044 283.392 109.17 284.04 109.332C284.688 109.476 285.282 109.683 285.822 109.953C286.38 110.223 286.821 110.601 287.145 111.087C287.469 111.555 287.631 112.194 287.631 113.004C287.631 113.85 287.388 114.588 286.902 115.218C286.434 115.83 285.75 116.307 284.85 116.649C283.95 116.973 282.87 117.135 281.61 117.135ZM303.662 117.189C302.42 117.189 301.304 116.982 300.314 116.568C299.342 116.154 298.577 115.587 298.019 114.867C297.461 114.129 297.182 113.283 297.182 112.329C297.182 111.501 297.362 110.745 297.722 110.061C298.1 109.359 298.694 108.684 299.504 108.036C300.332 107.37 301.412 106.686 302.744 105.984C303.86 105.372 304.733 104.85 305.363 104.418C305.993 103.968 306.434 103.545 306.686 103.149C306.956 102.735 307.091 102.303 307.091 101.853C307.091 101.187 306.866 100.656 306.416 100.26C305.966 99.846 305.318 99.639 304.472 99.639C303.59 99.639 302.897 99.864 302.393 100.314C301.889 100.764 301.637 101.34 301.637 102.042C301.637 102.402 301.7 102.744 301.826 103.068C301.952 103.392 302.177 103.761 302.501 104.175C302.825 104.571 303.275 105.075 303.851 105.687L313.868 115.758L312.545 117.297L302.015 106.659C301.385 106.029 300.89 105.462 300.53 104.958C300.17 104.454 299.909 103.977 299.747 103.527C299.603 103.059 299.531 102.582 299.531 102.096C299.531 101.268 299.729 100.539 300.125 99.909C300.539 99.279 301.115 98.793 301.853 98.451C302.609 98.109 303.482 97.938 304.472 97.938C305.408 97.938 306.209 98.091 306.875 98.397C307.559 98.703 308.09 99.144 308.468 99.72C308.864 100.296 309.062 100.989 309.062 101.799C309.062 102.519 308.891 103.185 308.549 103.797C308.207 104.391 307.649 104.976 306.875 105.552C306.101 106.11 305.066 106.731 303.77 107.415C302.672 108.009 301.799 108.558 301.151 109.062C300.521 109.548 300.071 110.034 299.801 110.52C299.549 110.988 299.423 111.51 299.423 112.086C299.423 112.716 299.603 113.274 299.963 113.76C300.341 114.246 300.854 114.624 301.502 114.894C302.168 115.146 302.942 115.272 303.824 115.272C305.048 115.272 306.146 115.011 307.118 114.489C308.108 113.967 308.936 113.184 309.602 112.14C310.268 111.078 310.745 109.764 311.033 108.198L312.896 108.792C312.554 110.592 311.951 112.122 311.087 113.382C310.241 114.624 309.188 115.569 307.928 116.217C306.668 116.865 305.246 117.189 303.662 117.189ZM331.697 102.609C332.867 102.609 333.884 102.834 334.748 103.284C335.63 103.734 336.323 104.418 336.827 105.336C337.331 106.236 337.583 107.379 337.583 108.765V117H335.288V109.008C335.288 107.568 334.937 106.488 334.235 105.768C333.533 105.03 332.534 104.661 331.238 104.661C330.302 104.661 329.474 104.859 328.754 105.255C328.052 105.633 327.503 106.191 327.107 106.929C326.729 107.649 326.54 108.54 326.54 109.602V117H324.245V96.966H326.54V106.632L326.081 105.741C326.549 104.751 327.269 103.986 328.241 103.446C329.213 102.888 330.365 102.609 331.697 102.609ZM351.561 117V113.922L351.48 113.382V108.198C351.48 107.046 351.147 106.164 350.481 105.552C349.833 104.922 348.852 104.607 347.538 104.607C346.656 104.607 345.81 104.751 345 105.039C344.19 105.327 343.497 105.714 342.921 106.2L341.949 104.499C342.669 103.887 343.542 103.419 344.568 103.095C345.594 102.771 346.674 102.609 347.808 102.609C349.716 102.609 351.183 103.077 352.209 104.013C353.253 104.949 353.775 106.38 353.775 108.306V117H351.561ZM346.809 117.135C345.729 117.135 344.793 116.964 344.001 116.622C343.209 116.262 342.597 115.767 342.165 115.137C341.751 114.507 341.544 113.787 341.544 112.977C341.544 112.221 341.724 111.537 342.084 110.925C342.444 110.295 343.038 109.791 343.866 109.413C344.694 109.035 345.801 108.846 347.187 108.846H351.858V110.52H347.268C345.936 110.52 345.027 110.754 344.541 111.222C344.055 111.672 343.812 112.23 343.812 112.896C343.812 113.652 344.109 114.255 344.703 114.705C345.297 115.137 346.116 115.353 347.16 115.353C348.186 115.353 349.068 115.128 349.806 114.678C350.562 114.21 351.12 113.544 351.48 112.68L351.939 114.246C351.579 115.146 350.958 115.857 350.076 116.379C349.212 116.883 348.123 117.135 346.809 117.135ZM362.84 117.135C361.652 117.135 360.527 116.973 359.465 116.649C358.403 116.325 357.575 115.92 356.981 115.434L357.953 113.625C358.547 114.057 359.294 114.426 360.194 114.732C361.094 115.02 362.03 115.164 363.002 115.164C364.262 115.164 365.171 114.975 365.729 114.597C366.305 114.219 366.593 113.706 366.593 113.058C366.593 112.572 366.422 112.194 366.08 111.924C365.756 111.654 365.324 111.447 364.784 111.303C364.244 111.159 363.65 111.042 363.002 110.952C362.354 110.844 361.697 110.718 361.031 110.574C360.383 110.412 359.789 110.196 359.249 109.926C358.709 109.638 358.277 109.251 357.953 108.765C357.629 108.279 357.467 107.622 357.467 106.794C357.467 105.984 357.692 105.264 358.142 104.634C358.61 103.986 359.276 103.491 360.14 103.149C361.022 102.789 362.066 102.609 363.272 102.609C364.208 102.609 365.144 102.726 366.08 102.96C367.034 103.194 367.808 103.518 368.402 103.932L367.403 105.741C366.773 105.327 366.098 105.03 365.378 104.85C364.676 104.67 363.965 104.58 363.245 104.58C362.057 104.58 361.175 104.787 360.599 105.201C360.023 105.597 359.735 106.101 359.735 106.713C359.735 107.217 359.897 107.613 360.221 107.901C360.563 108.189 361.004 108.414 361.544 108.576C362.084 108.72 362.678 108.846 363.326 108.954C363.974 109.044 364.622 109.17 365.27 109.332C365.918 109.476 366.512 109.683 367.052 109.953C367.61 110.223 368.051 110.601 368.375 111.087C368.699 111.555 368.861 112.194 368.861 113.004C368.861 113.85 368.618 114.588 368.132 115.218C367.664 115.83 366.98 116.307 366.08 116.649C365.18 116.973 364.1 117.135 362.84 117.135ZM376.37 117.135C375.182 117.135 374.057 116.973 372.995 116.649C371.933 116.325 371.105 115.92 370.511 115.434L371.483 113.625C372.077 114.057 372.824 114.426 373.724 114.732C374.624 115.02 375.56 115.164 376.532 115.164C377.792 115.164 378.701 114.975 379.259 114.597C379.835 114.219 380.123 113.706 380.123 113.058C380.123 112.572 379.952 112.194 379.61 111.924C379.286 111.654 378.854 111.447 378.314 111.303C377.774 111.159 377.18 111.042 376.532 110.952C375.884 110.844 375.227 110.718 374.561 110.574C373.913 110.412 373.319 110.196 372.779 109.926C372.239 109.638 371.807 109.251 371.483 108.765C371.159 108.279 370.997 107.622 370.997 106.794C370.997 105.984 371.222 105.264 371.672 104.634C372.14 103.986 372.806 103.491 373.67 103.149C374.552 102.789 375.596 102.609 376.802 102.609C377.738 102.609 378.674 102.726 379.61 102.96C380.564 103.194 381.338 103.518 381.932 103.932L380.933 105.741C380.303 105.327 379.628 105.03 378.908 104.85C378.206 104.67 377.495 104.58 376.775 104.58C375.587 104.58 374.705 104.787 374.129 105.201C373.553 105.597 373.265 106.101 373.265 106.713C373.265 107.217 373.427 107.613 373.751 107.901C374.093 108.189 374.534 108.414 375.074 108.576C375.614 108.72 376.208 108.846 376.856 108.954C377.504 109.044 378.152 109.17 378.8 109.332C379.448 109.476 380.042 109.683 380.582 109.953C381.14 110.223 381.581 110.601 381.905 111.087C382.229 111.555 382.391 112.194 382.391 113.004C382.391 113.85 382.148 114.588 381.662 115.218C381.194 115.83 380.51 116.307 379.61 116.649C378.71 116.973 377.63 117.135 376.37 117.135ZM392.14 117.135C390.628 117.135 389.296 116.829 388.144 116.217C387.01 115.587 386.128 114.723 385.498 113.625C384.868 112.527 384.553 111.276 384.553 109.872C384.553 108.45 384.859 107.199 385.471 106.119C386.083 105.021 386.92 104.166 387.982 103.554C389.062 102.924 390.277 102.609 391.627 102.609C392.977 102.609 394.174 102.915 395.218 103.527C396.28 104.139 397.108 104.994 397.702 106.092C398.314 107.19 398.62 108.459 398.62 109.899C398.62 110.007 398.611 110.124 398.593 110.25C398.593 110.376 398.584 110.493 398.566 110.601H386.335V108.927H397.351L396.433 109.548C396.451 108.576 396.253 107.721 395.839 106.983C395.425 106.227 394.849 105.642 394.111 105.228C393.391 104.796 392.563 104.58 391.627 104.58C390.691 104.58 389.854 104.796 389.116 105.228C388.396 105.642 387.829 106.227 387.415 106.983C387.001 107.739 386.794 108.612 386.794 109.602V109.98C386.794 110.988 387.019 111.879 387.469 112.653C387.937 113.427 388.576 114.03 389.386 114.462C390.196 114.894 391.132 115.11 392.194 115.11C393.058 115.11 393.85 114.966 394.57 114.678C395.29 114.39 395.911 113.94 396.433 113.328L397.702 114.813C397.072 115.569 396.28 116.145 395.326 116.541C394.372 116.937 393.31 117.135 392.14 117.135ZM402.518 117V96.966H404.813V117H402.518ZM410.089 117V96.966H412.384V117H410.089ZM425.317 117V101.259C425.317 99.909 425.704 98.838 426.478 98.046C427.27 97.236 428.395 96.831 429.853 96.831C430.393 96.831 430.915 96.903 431.419 97.047C431.941 97.173 432.373 97.38 432.715 97.668L431.986 99.423C431.734 99.189 431.428 99.018 431.068 98.91C430.726 98.784 430.357 98.721 429.961 98.721C429.169 98.721 428.566 98.946 428.152 99.396C427.756 99.828 427.558 100.467 427.558 101.313V103.338L427.612 104.391V117H425.317ZM422.833 104.661V102.744H431.797V104.661H422.833ZM434.462 117V102.744H436.649V106.632L436.433 105.795C436.829 104.751 437.495 103.959 438.431 103.419C439.367 102.879 440.528 102.609 441.914 102.609V104.85C441.806 104.832 441.707 104.823 441.617 104.823C441.545 104.823 441.464 104.823 441.374 104.823C439.952 104.823 438.827 105.255 437.999 106.119C437.171 106.965 436.757 108.198 436.757 109.818V117H434.462ZM451.459 117.135C449.947 117.135 448.615 116.829 447.463 116.217C446.329 115.587 445.447 114.723 444.817 113.625C444.187 112.527 443.872 111.276 443.872 109.872C443.872 108.45 444.178 107.199 444.79 106.119C445.402 105.021 446.239 104.166 447.301 103.554C448.381 102.924 449.596 102.609 450.946 102.609C452.296 102.609 453.493 102.915 454.537 103.527C455.599 104.139 456.427 104.994 457.021 106.092C457.633 107.19 457.939 108.459 457.939 109.899C457.939 110.007 457.93 110.124 457.912 110.25C457.912 110.376 457.903 110.493 457.885 110.601H445.654V108.927H456.67L455.752 109.548C455.77 108.576 455.572 107.721 455.158 106.983C454.744 106.227 454.168 105.642 453.43 105.228C452.71 104.796 451.882 104.58 450.946 104.58C450.01 104.58 449.173 104.796 448.435 105.228C447.715 105.642 447.148 106.227 446.734 106.983C446.32 107.739 446.113 108.612 446.113 109.602V109.98C446.113 110.988 446.338 111.879 446.788 112.653C447.256 113.427 447.895 114.03 448.705 114.462C449.515 114.894 450.451 115.11 451.513 115.11C452.377 115.11 453.169 114.966 453.889 114.678C454.609 114.39 455.23 113.94 455.752 113.328L457.021 114.813C456.391 115.569 455.599 116.145 454.645 116.541C453.691 116.937 452.629 117.135 451.459 117.135ZM468.047 117.135C466.535 117.135 465.203 116.829 464.051 116.217C462.917 115.587 462.035 114.723 461.405 113.625C460.775 112.527 460.46 111.276 460.46 109.872C460.46 108.45 460.766 107.199 461.378 106.119C461.99 105.021 462.827 104.166 463.889 103.554C464.969 102.924 466.184 102.609 467.534 102.609C468.884 102.609 470.081 102.915 471.125 103.527C472.187 104.139 473.015 104.994 473.609 106.092C474.221 107.19 474.527 108.459 474.527 109.899C474.527 110.007 474.518 110.124 474.5 110.25C474.5 110.376 474.491 110.493 474.473 110.601H462.242V108.927H473.258L472.34 109.548C472.358 108.576 472.16 107.721 471.746 106.983C471.332 106.227 470.756 105.642 470.018 105.228C469.298 104.796 468.47 104.58 467.534 104.58C466.598 104.58 465.761 104.796 465.023 105.228C464.303 105.642 463.736 106.227 463.322 106.983C462.908 107.739 462.701 108.612 462.701 109.602V109.98C462.701 110.988 462.926 111.879 463.376 112.653C463.844 113.427 464.483 114.03 465.293 114.462C466.103 114.894 467.039 115.11 468.101 115.11C468.965 115.11 469.757 114.966 470.477 114.678C471.197 114.39 471.818 113.94 472.34 113.328L473.609 114.813C472.979 115.569 472.187 116.145 471.233 116.541C470.279 116.937 469.217 117.135 468.047 117.135ZM493.184 117.135C491.978 117.135 490.88 116.865 489.89 116.325C488.918 115.767 488.135 114.948 487.541 113.868C486.965 112.788 486.677 111.456 486.677 109.872C486.677 108.288 486.956 106.956 487.514 105.876C488.09 104.796 488.873 103.986 489.863 103.446C490.853 102.888 491.96 102.609 493.184 102.609C494.57 102.609 495.803 102.915 496.883 103.527C497.963 104.139 498.809 104.994 499.421 106.092C500.051 107.172 500.366 108.432 500.366 109.872C500.366 111.33 500.051 112.599 499.421 113.679C498.809 114.759 497.963 115.605 496.883 116.217C495.803 116.829 494.57 117.135 493.184 117.135ZM485.732 122.238V102.744H487.919V106.794L487.757 109.899L488.027 113.031V122.238H485.732ZM493.022 115.11C493.976 115.11 494.822 114.894 495.56 114.462C496.316 114.03 496.919 113.418 497.369 112.626C497.819 111.834 498.044 110.916 498.044 109.872C498.044 108.81 497.819 107.892 497.369 107.118C496.919 106.326 496.316 105.714 495.56 105.282C494.822 104.85 493.976 104.634 493.022 104.634C492.068 104.634 491.213 104.85 490.457 105.282C489.701 105.714 489.098 106.326 488.648 107.118C488.198 107.892 487.973 108.81 487.973 109.872C487.973 110.916 488.198 111.834 488.648 112.626C489.098 113.418 489.701 114.03 490.457 114.462C491.213 114.894 492.068 115.11 493.022 115.11ZM512.969 117V113.922L512.888 113.382V108.198C512.888 107.046 512.555 106.164 511.889 105.552C511.241 104.922 510.26 104.607 508.946 104.607C508.064 104.607 507.218 104.751 506.408 105.039C505.598 105.327 504.905 105.714 504.329 106.2L503.357 104.499C504.077 103.887 504.95 103.419 505.976 103.095C507.002 102.771 508.082 102.609 509.216 102.609C511.124 102.609 512.591 103.077 513.617 104.013C514.661 104.949 515.183 106.38 515.183 108.306V117H512.969ZM508.217 117.135C507.137 117.135 506.201 116.964 505.409 116.622C504.617 116.262 504.005 115.767 503.573 115.137C503.159 114.507 502.952 113.787 502.952 112.977C502.952 112.221 503.132 111.537 503.492 110.925C503.852 110.295 504.446 109.791 505.274 109.413C506.102 109.035 507.209 108.846 508.595 108.846H513.266V110.52H508.676C507.344 110.52 506.435 110.754 505.949 111.222C505.463 111.672 505.22 112.23 505.22 112.896C505.22 113.652 505.517 114.255 506.111 114.705C506.705 115.137 507.524 115.353 508.568 115.353C509.594 115.353 510.476 115.128 511.214 114.678C511.97 114.21 512.528 113.544 512.888 112.68L513.347 114.246C512.987 115.146 512.366 115.857 511.484 116.379C510.62 116.883 509.531 117.135 508.217 117.135ZM520.394 122.373C519.728 122.373 519.08 122.265 518.45 122.049C517.82 121.833 517.28 121.509 516.83 121.077L517.829 119.349C518.189 119.691 518.585 119.952 519.017 120.132C519.449 120.33 519.917 120.429 520.421 120.429C521.051 120.429 521.582 120.258 522.014 119.916C522.446 119.574 522.851 118.98 523.229 118.134L524.147 116.136L524.39 115.812L530.087 102.744H532.355L525.335 118.566C524.939 119.52 524.489 120.276 523.985 120.834C523.481 121.41 522.932 121.806 522.338 122.022C521.762 122.256 521.114 122.373 520.394 122.373ZM523.958 117.432L517.424 102.744H519.827L525.47 115.596L523.958 117.432ZM552.815 102.609C553.985 102.609 555.002 102.834 555.866 103.284C556.73 103.734 557.405 104.418 557.891 105.336C558.377 106.236 558.62 107.379 558.62 108.765V117H556.325V109.008C556.325 107.568 555.983 106.488 555.299 105.768C554.633 105.03 553.688 104.661 552.464 104.661C551.564 104.661 550.772 104.859 550.088 105.255C549.404 105.633 548.882 106.191 548.522 106.929C548.162 107.649 547.982 108.54 547.982 109.602V117H545.66V109.008C545.66 107.568 545.327 106.488 544.661 105.768C543.995 105.03 543.041 104.661 541.799 104.661C540.899 104.661 540.107 104.859 539.423 105.255C538.757 105.633 538.235 106.191 537.857 106.929C537.497 107.649 537.317 108.54 537.317 109.602V117H535.022V102.744H537.209V106.578L536.858 105.741C537.308 104.751 538.001 103.986 538.937 103.446C539.891 102.888 540.998 102.609 542.258 102.609C543.644 102.609 544.823 102.951 545.795 103.635C546.785 104.319 547.424 105.345 547.712 106.713L546.794 106.362C547.226 105.246 547.973 104.346 549.035 103.662C550.097 102.96 551.357 102.609 552.815 102.609ZM569.949 117.135C568.437 117.135 567.105 116.829 565.953 116.217C564.819 115.587 563.937 114.723 563.307 113.625C562.677 112.527 562.362 111.276 562.362 109.872C562.362 108.45 562.668 107.199 563.28 106.119C563.892 105.021 564.729 104.166 565.791 103.554C566.871 102.924 568.086 102.609 569.436 102.609C570.786 102.609 571.983 102.915 573.027 103.527C574.089 104.139 574.917 104.994 575.511 106.092C576.123 107.19 576.429 108.459 576.429 109.899C576.429 110.007 576.42 110.124 576.402 110.25C576.402 110.376 576.393 110.493 576.375 110.601H564.144V108.927H575.16L574.242 109.548C574.26 108.576 574.062 107.721 573.648 106.983C573.234 106.227 572.658 105.642 571.92 105.228C571.2 104.796 570.372 104.58 569.436 104.58C568.5 104.58 567.663 104.796 566.925 105.228C566.205 105.642 565.638 106.227 565.224 106.983C564.81 107.739 564.603 108.612 564.603 109.602V109.98C564.603 110.988 564.828 111.879 565.278 112.653C565.746 113.427 566.385 114.03 567.195 114.462C568.005 114.894 568.941 115.11 570.003 115.11C570.867 115.11 571.659 114.966 572.379 114.678C573.099 114.39 573.72 113.94 574.242 113.328L575.511 114.813C574.881 115.569 574.089 116.145 573.135 116.541C572.181 116.937 571.119 117.135 569.949 117.135ZM587.779 102.609C588.949 102.609 589.966 102.834 590.83 103.284C591.712 103.734 592.405 104.418 592.909 105.336C593.413 106.236 593.665 107.379 593.665 108.765V117H591.37V109.008C591.37 107.568 591.019 106.488 590.317 105.768C589.615 105.03 588.616 104.661 587.32 104.661C586.384 104.661 585.556 104.859 584.836 105.255C584.134 105.633 583.585 106.191 583.189 106.929C582.811 107.649 582.622 108.54 582.622 109.602V117H580.327V102.744H582.514V106.632L582.163 105.741C582.631 104.751 583.351 103.986 584.323 103.446C585.295 102.888 586.447 102.609 587.779 102.609ZM603.512 117.135C602.108 117.135 601.028 116.766 600.272 116.028C599.516 115.272 599.138 114.201 599.138 112.815V99.612H601.433V112.707C601.433 113.499 601.631 114.111 602.027 114.543C602.441 114.975 603.017 115.191 603.755 115.191C604.583 115.191 605.267 114.966 605.807 114.516L606.563 116.163C606.185 116.487 605.717 116.73 605.159 116.892C604.619 117.054 604.07 117.135 603.512 117.135ZM596.654 104.661V102.744H605.618V104.661H596.654ZM610.692 117.135C610.224 117.135 609.828 116.982 609.504 116.676C609.18 116.352 609.018 115.947 609.018 115.461C609.018 114.957 609.18 114.552 609.504 114.246C609.828 113.94 610.224 113.787 610.692 113.787C611.124 113.787 611.502 113.94 611.826 114.246C612.15 114.552 612.312 114.957 612.312 115.461C612.312 115.947 612.15 116.352 611.826 116.676C611.502 116.982 611.124 117.135 610.692 117.135Z" fill="black"/>
<path d="M130.762 74.216C129.286 74.216 127.999 73.946 126.901 73.406C125.803 72.866 124.948 72.11 124.336 71.138C123.742 70.166 123.445 69.023 123.445 67.709C123.445 66.089 123.823 64.649 124.579 63.389C125.335 62.111 126.37 61.103 127.684 60.365C129.016 59.627 130.528 59.258 132.22 59.258C133.714 59.258 135.001 59.528 136.081 60.068C137.179 60.608 138.025 61.364 138.619 62.336C139.231 63.29 139.537 64.433 139.537 65.765C139.537 67.367 139.159 68.807 138.403 70.085C137.647 71.363 136.612 72.371 135.298 73.109C133.984 73.847 132.472 74.216 130.762 74.216ZM131.032 70.76C131.86 70.76 132.589 70.562 133.219 70.166C133.867 69.752 134.371 69.185 134.731 68.465C135.091 67.745 135.271 66.908 135.271 65.954C135.271 64.982 134.983 64.199 134.407 63.605C133.831 63.011 133.021 62.714 131.977 62.714C131.149 62.714 130.411 62.921 129.763 63.335C129.133 63.731 128.629 64.289 128.251 65.009C127.891 65.729 127.711 66.566 127.711 67.52C127.711 68.51 127.999 69.302 128.575 69.896C129.151 70.472 129.97 70.76 131.032 70.76ZM152.316 59.258C153.558 59.258 154.611 59.519 155.475 60.041C156.339 60.545 156.951 61.292 157.311 62.282C157.671 63.272 157.707 64.496 157.419 65.954L155.799 74H151.587L153.153 66.224C153.369 65.162 153.279 64.343 152.883 63.767C152.505 63.191 151.803 62.903 150.777 62.903C149.715 62.903 148.824 63.209 148.104 63.821C147.402 64.433 146.916 65.369 146.646 66.629L145.188 74H140.976L143.865 59.474H147.861L147.024 63.578L146.43 62.336C147.132 61.274 147.996 60.5 149.022 60.014C150.066 59.51 151.164 59.258 152.316 59.258ZM159.779 74L163.775 53.966H167.987L163.991 74H159.779ZM168.035 74L170.924 59.474H175.109L172.22 74H168.035ZM173.732 57.449C172.994 57.449 172.4 57.242 171.95 56.828C171.5 56.396 171.275 55.874 171.275 55.262C171.275 54.542 171.527 53.948 172.031 53.48C172.553 52.994 173.228 52.751 174.056 52.751C174.794 52.751 175.388 52.958 175.838 53.372C176.306 53.768 176.54 54.263 176.54 54.857C176.54 55.631 176.279 56.261 175.757 56.747C175.253 57.215 174.578 57.449 173.732 57.449ZM187.605 59.258C188.847 59.258 189.9 59.519 190.764 60.041C191.628 60.545 192.24 61.292 192.6 62.282C192.96 63.272 192.996 64.496 192.708 65.954L191.088 74H186.876L188.442 66.224C188.658 65.162 188.568 64.343 188.172 63.767C187.794 63.191 187.092 62.903 186.066 62.903C185.004 62.903 184.113 63.209 183.393 63.821C182.691 64.433 182.205 65.369 181.935 66.629L180.477 74H176.265L179.154 59.474H183.15L182.313 63.578L181.719 62.336C182.421 61.274 183.285 60.5 184.311 60.014C185.355 59.51 186.453 59.258 187.605 59.258ZM202.843 74.216C201.331 74.216 200.017 73.946 198.901 73.406C197.803 72.866 196.948 72.11 196.336 71.138C195.724 70.166 195.418 69.023 195.418 67.709C195.418 66.089 195.778 64.649 196.498 63.389C197.236 62.111 198.244 61.103 199.522 60.365C200.818 59.627 202.303 59.258 203.977 59.258C205.399 59.258 206.623 59.528 207.649 60.068C208.675 60.59 209.467 61.328 210.025 62.282C210.601 63.218 210.889 64.343 210.889 65.657C210.889 66.035 210.862 66.413 210.808 66.791C210.772 67.169 210.718 67.529 210.646 67.871H198.631L199.063 65.414H208.675L206.947 66.17C207.091 65.36 207.046 64.685 206.812 64.145C206.578 63.587 206.2 63.164 205.678 62.876C205.156 62.57 204.526 62.417 203.788 62.417C202.87 62.417 202.087 62.642 201.439 63.092C200.809 63.524 200.332 64.127 200.008 64.901C199.684 65.675 199.522 66.548 199.522 67.52C199.522 68.636 199.828 69.473 200.44 70.031C201.07 70.571 202.015 70.841 203.275 70.841C204.013 70.841 204.724 70.724 205.408 70.49C206.092 70.256 206.677 69.923 207.163 69.491L208.918 72.272C208.072 72.938 207.118 73.433 206.056 73.757C205.012 74.063 203.941 74.216 202.843 74.216ZM219.991 74L222.88 59.474H227.065L224.176 74H219.991ZM225.688 57.449C224.95 57.449 224.356 57.242 223.906 56.828C223.456 56.396 223.231 55.874 223.231 55.262C223.231 54.542 223.483 53.948 223.987 53.48C224.509 52.994 225.184 52.751 226.012 52.751C226.75 52.751 227.344 52.958 227.794 53.372C228.262 53.768 228.496 54.263 228.496 54.857C228.496 55.631 228.235 56.261 227.713 56.747C227.209 57.215 226.534 57.449 225.688 57.449ZM239.561 59.258C240.803 59.258 241.856 59.519 242.72 60.041C243.584 60.545 244.196 61.292 244.556 62.282C244.916 63.272 244.952 64.496 244.664 65.954L243.044 74H238.832L240.398 66.224C240.614 65.162 240.524 64.343 240.128 63.767C239.75 63.191 239.048 62.903 238.022 62.903C236.96 62.903 236.069 63.209 235.349 63.821C234.647 64.433 234.161 65.369 233.891 66.629L232.433 74H228.221L231.11 59.474H235.106L234.269 63.578L233.675 62.336C234.377 61.274 235.241 60.5 236.267 60.014C237.311 59.51 238.409 59.258 239.561 59.258ZM252.937 74.216C251.893 74.216 251.002 74.009 250.264 73.595C249.526 73.163 248.995 72.551 248.671 71.759C248.365 70.949 248.32 69.995 248.536 68.897L251.047 56.261H255.259L252.748 68.87C252.64 69.482 252.703 69.968 252.937 70.328C253.171 70.688 253.603 70.868 254.233 70.868C254.521 70.868 254.809 70.823 255.097 70.733C255.403 70.643 255.682 70.517 255.934 70.355L256.555 73.352C256.033 73.676 255.457 73.901 254.827 74.027C254.197 74.153 253.567 74.216 252.937 74.216ZM247.456 63.038L248.104 59.798H258.175L257.527 63.038H247.456ZM266.166 74.216C264.654 74.216 263.34 73.946 262.224 73.406C261.126 72.866 260.271 72.11 259.659 71.138C259.047 70.166 258.741 69.023 258.741 67.709C258.741 66.089 259.101 64.649 259.821 63.389C260.559 62.111 261.567 61.103 262.845 60.365C264.141 59.627 265.626 59.258 267.3 59.258C268.722 59.258 269.946 59.528 270.972 60.068C271.998 60.59 272.79 61.328 273.348 62.282C273.924 63.218 274.212 64.343 274.212 65.657C274.212 66.035 274.185 66.413 274.131 66.791C274.095 67.169 274.041 67.529 273.969 67.871H261.954L262.386 65.414H271.998L270.27 66.17C270.414 65.36 270.369 64.685 270.135 64.145C269.901 63.587 269.523 63.164 269.001 62.876C268.479 62.57 267.849 62.417 267.111 62.417C266.193 62.417 265.41 62.642 264.762 63.092C264.132 63.524 263.655 64.127 263.331 64.901C263.007 65.675 262.845 66.548 262.845 67.52C262.845 68.636 263.151 69.473 263.763 70.031C264.393 70.571 265.338 70.841 266.598 70.841C267.336 70.841 268.047 70.724 268.731 70.49C269.415 70.256 270 69.923 270.486 69.491L272.241 72.272C271.395 72.938 270.441 73.433 269.379 73.757C268.335 74.063 267.264 74.216 266.166 74.216ZM275.533 74L278.422 59.474H282.418L281.581 63.605L281.203 62.417C281.851 61.247 282.697 60.428 283.741 59.96C284.785 59.492 286.036 59.258 287.494 59.258L286.738 63.146C286.558 63.128 286.387 63.119 286.225 63.119C286.081 63.101 285.928 63.092 285.766 63.092C284.524 63.092 283.507 63.398 282.715 64.01C281.941 64.622 281.419 65.612 281.149 66.98L279.745 74H275.533ZM293.646 74.216C292.53 74.216 291.495 73.964 290.541 73.46C289.587 72.938 288.822 72.191 288.246 71.219C287.67 70.247 287.382 69.077 287.382 67.709C287.382 66.485 287.58 65.36 287.976 64.334C288.39 63.308 288.966 62.417 289.704 61.661C290.442 60.905 291.297 60.32 292.269 59.906C293.241 59.474 294.285 59.258 295.401 59.258C296.607 59.258 297.642 59.483 298.506 59.933C299.37 60.383 300.009 61.085 300.423 62.039C300.855 62.975 301.008 64.19 300.882 65.684C300.792 67.394 300.441 68.897 299.829 70.193C299.217 71.471 298.389 72.461 297.345 73.163C296.319 73.865 295.086 74.216 293.646 74.216ZM294.942 70.733C295.77 70.733 296.499 70.535 297.129 70.139C297.777 69.725 298.281 69.167 298.641 68.465C299.019 67.745 299.208 66.908 299.208 65.954C299.208 64.964 298.911 64.181 298.317 63.605C297.741 63.029 296.931 62.741 295.887 62.741C295.077 62.741 294.348 62.948 293.7 63.362C293.052 63.758 292.539 64.316 292.161 65.036C291.801 65.738 291.621 66.566 291.621 67.52C291.621 68.51 291.909 69.293 292.485 69.869C293.079 70.445 293.898 70.733 294.942 70.733ZM297.831 74L298.398 71.111L299.343 66.791L299.91 62.471L300.504 59.474H304.716L301.827 74H297.831ZM313.53 74.216C312.036 74.216 310.731 73.946 309.615 73.406C308.517 72.866 307.662 72.11 307.05 71.138C306.438 70.166 306.132 69.023 306.132 67.709C306.132 66.089 306.51 64.649 307.266 63.389C308.022 62.111 309.066 61.103 310.398 60.365C311.73 59.627 313.26 59.258 314.988 59.258C316.536 59.258 317.877 59.582 319.011 60.23C320.145 60.86 320.982 61.76 321.522 62.93L317.958 64.712C317.652 64.028 317.22 63.533 316.662 63.227C316.122 62.903 315.474 62.741 314.718 62.741C313.89 62.741 313.152 62.948 312.504 63.362C311.856 63.758 311.343 64.316 310.965 65.036C310.587 65.738 310.398 66.557 310.398 67.493C310.398 68.483 310.686 69.275 311.262 69.869C311.856 70.445 312.693 70.733 313.773 70.733C314.511 70.733 315.186 70.58 315.798 70.274C316.41 69.95 316.923 69.455 317.337 68.789L320.442 70.733C319.758 71.831 318.804 72.686 317.58 73.298C316.374 73.91 315.024 74.216 313.53 74.216ZM328.073 74.216C327.029 74.216 326.138 74.009 325.4 73.595C324.662 73.163 324.131 72.551 323.807 71.759C323.501 70.949 323.456 69.995 323.672 68.897L326.183 56.261H330.395L327.884 68.87C327.776 69.482 327.839 69.968 328.073 70.328C328.307 70.688 328.739 70.868 329.369 70.868C329.657 70.868 329.945 70.823 330.233 70.733C330.539 70.643 330.818 70.517 331.07 70.355L331.691 73.352C331.169 73.676 330.593 73.901 329.963 74.027C329.333 74.153 328.703 74.216 328.073 74.216ZM322.592 63.038L323.24 59.798H333.311L332.663 63.038H322.592ZM334.028 74L336.917 59.474H341.102L338.213 74H334.028ZM339.725 57.449C338.987 57.449 338.393 57.242 337.943 56.828C337.493 56.396 337.268 55.874 337.268 55.262C337.268 54.542 337.52 53.948 338.024 53.48C338.546 52.994 339.221 52.751 340.049 52.751C340.787 52.751 341.381 52.958 341.831 53.372C342.299 53.768 342.533 54.263 342.533 54.857C342.533 55.631 342.272 56.261 341.75 56.747C341.246 57.215 340.571 57.449 339.725 57.449ZM346.2 74L342.987 59.474H347.145L349.818 71.975H347.658L355.353 59.474H359.565L350.547 74H346.2ZM365.856 74.216C364.344 74.216 363.03 73.946 361.914 73.406C360.816 72.866 359.961 72.11 359.349 71.138C358.737 70.166 358.431 69.023 358.431 67.709C358.431 66.089 358.791 64.649 359.511 63.389C360.249 62.111 361.257 61.103 362.535 60.365C363.831 59.627 365.316 59.258 366.99 59.258C368.412 59.258 369.636 59.528 370.662 60.068C371.688 60.59 372.48 61.328 373.038 62.282C373.614 63.218 373.902 64.343 373.902 65.657C373.902 66.035 373.875 66.413 373.821 66.791C373.785 67.169 373.731 67.529 373.659 67.871H361.644L362.076 65.414H371.688L369.96 66.17C370.104 65.36 370.059 64.685 369.825 64.145C369.591 63.587 369.213 63.164 368.691 62.876C368.169 62.57 367.539 62.417 366.801 62.417C365.883 62.417 365.1 62.642 364.452 63.092C363.822 63.524 363.345 64.127 363.021 64.901C362.697 65.675 362.535 66.548 362.535 67.52C362.535 68.636 362.841 69.473 363.453 70.031C364.083 70.571 365.028 70.841 366.288 70.841C367.026 70.841 367.737 70.724 368.421 70.49C369.105 70.256 369.69 69.923 370.176 69.491L371.931 72.272C371.085 72.938 370.131 73.433 369.069 73.757C368.025 74.063 366.954 74.216 365.856 74.216ZM389.566 74.216C388.45 74.216 387.415 73.964 386.461 73.46C385.507 72.938 384.742 72.191 384.166 71.219C383.59 70.247 383.302 69.077 383.302 67.709C383.302 66.485 383.5 65.36 383.896 64.334C384.31 63.308 384.886 62.417 385.624 61.661C386.362 60.905 387.217 60.32 388.189 59.906C389.161 59.474 390.205 59.258 391.321 59.258C392.527 59.258 393.562 59.483 394.426 59.933C395.29 60.383 395.929 61.085 396.343 62.039C396.775 62.975 396.928 64.19 396.802 65.684C396.712 67.394 396.361 68.897 395.749 70.193C395.137 71.471 394.309 72.461 393.265 73.163C392.239 73.865 391.006 74.216 389.566 74.216ZM390.862 70.733C391.69 70.733 392.419 70.535 393.049 70.139C393.697 69.725 394.201 69.167 394.561 68.465C394.939 67.745 395.128 66.908 395.128 65.954C395.128 64.964 394.831 64.181 394.237 63.605C393.661 63.029 392.851 62.741 391.807 62.741C390.997 62.741 390.268 62.948 389.62 63.362C388.972 63.758 388.459 64.316 388.081 65.036C387.721 65.738 387.541 66.566 387.541 67.52C387.541 68.51 387.829 69.293 388.405 69.869C388.999 70.445 389.818 70.733 390.862 70.733ZM393.751 74L394.318 71.111L395.263 66.791L395.83 62.471L396.424 59.474H400.636L397.747 74H393.751ZM408.397 74.216C407.281 74.216 406.246 73.964 405.292 73.46C404.338 72.938 403.573 72.191 402.997 71.219C402.421 70.247 402.133 69.077 402.133 67.709C402.133 66.485 402.331 65.36 402.727 64.334C403.141 63.308 403.717 62.417 404.455 61.661C405.193 60.905 406.048 60.32 407.02 59.906C407.992 59.474 409.036 59.258 410.152 59.258C411.286 59.258 412.267 59.456 413.095 59.852C413.923 60.248 414.562 60.86 415.012 61.688C415.48 62.498 415.714 63.524 415.714 64.766C415.714 66.098 415.552 67.34 415.228 68.492C414.922 69.626 414.454 70.625 413.824 71.489C413.194 72.335 412.42 73.001 411.502 73.487C410.602 73.973 409.567 74.216 408.397 74.216ZM409.693 70.733C410.521 70.733 411.25 70.535 411.88 70.139C412.528 69.725 413.032 69.167 413.392 68.465C413.77 67.745 413.959 66.908 413.959 65.954C413.959 64.964 413.662 64.181 413.068 63.605C412.492 63.029 411.682 62.741 410.638 62.741C409.828 62.741 409.099 62.948 408.451 63.362C407.803 63.758 407.29 64.316 406.912 65.036C406.552 65.738 406.372 66.566 406.372 67.52C406.372 68.51 406.66 69.293 407.236 69.869C407.83 70.445 408.649 70.733 409.693 70.733ZM412.555 74L413.149 71.111L414.067 66.791L414.634 62.471L416.335 53.966H420.547L416.551 74H412.555ZM421.232 68.087L421.907 64.712H429.548L428.873 68.087H421.232ZM439.147 74.216C437.635 74.216 436.321 73.946 435.205 73.406C434.107 72.866 433.252 72.11 432.64 71.138C432.028 70.166 431.722 69.023 431.722 67.709C431.722 66.089 432.082 64.649 432.802 63.389C433.54 62.111 434.548 61.103 435.826 60.365C437.122 59.627 438.607 59.258 440.281 59.258C441.703 59.258 442.927 59.528 443.953 60.068C444.979 60.59 445.771 61.328 446.329 62.282C446.905 63.218 447.193 64.343 447.193 65.657C447.193 66.035 447.166 66.413 447.112 66.791C447.076 67.169 447.022 67.529 446.95 67.871H434.935L435.367 65.414H444.979L443.251 66.17C443.395 65.36 443.35 64.685 443.116 64.145C442.882 63.587 442.504 63.164 441.982 62.876C441.46 62.57 440.83 62.417 440.092 62.417C439.174 62.417 438.391 62.642 437.743 63.092C437.113 63.524 436.636 64.127 436.312 64.901C435.988 65.675 435.826 66.548 435.826 67.52C435.826 68.636 436.132 69.473 436.744 70.031C437.374 70.571 438.319 70.841 439.579 70.841C440.317 70.841 441.028 70.724 441.712 70.49C442.396 70.256 442.981 69.923 443.467 69.491L445.222 72.272C444.376 72.938 443.422 73.433 442.36 73.757C441.316 74.063 440.245 74.216 439.147 74.216ZM455.129 74.216C454.013 74.216 452.978 73.964 452.024 73.46C451.07 72.938 450.305 72.191 449.729 71.219C449.153 70.247 448.865 69.077 448.865 67.709C448.865 66.485 449.063 65.36 449.459 64.334C449.873 63.308 450.449 62.417 451.187 61.661C451.925 60.905 452.78 60.32 453.752 59.906C454.724 59.474 455.768 59.258 456.884 59.258C458.018 59.258 458.999 59.456 459.827 59.852C460.655 60.248 461.294 60.86 461.744 61.688C462.212 62.498 462.446 63.524 462.446 64.766C462.446 66.098 462.284 67.34 461.96 68.492C461.654 69.626 461.186 70.625 460.556 71.489C459.926 72.335 459.152 73.001 458.234 73.487C457.334 73.973 456.299 74.216 455.129 74.216ZM456.425 70.733C457.253 70.733 457.982 70.535 458.612 70.139C459.26 69.725 459.764 69.167 460.124 68.465C460.502 67.745 460.691 66.908 460.691 65.954C460.691 64.964 460.394 64.181 459.8 63.605C459.224 63.029 458.414 62.741 457.37 62.741C456.56 62.741 455.831 62.948 455.183 63.362C454.535 63.758 454.022 64.316 453.644 65.036C453.284 65.738 453.104 66.566 453.104 67.52C453.104 68.51 453.392 69.293 453.968 69.869C454.562 70.445 455.381 70.733 456.425 70.733ZM459.287 74L459.881 71.111L460.799 66.791L461.366 62.471L463.067 53.966H467.279L463.283 74H459.287ZM467.343 74L470.232 59.474H474.417L471.528 74H467.343ZM473.04 57.449C472.302 57.449 471.708 57.242 471.258 56.828C470.808 56.396 470.583 55.874 470.583 55.262C470.583 54.542 470.835 53.948 471.339 53.48C471.861 52.994 472.536 52.751 473.364 52.751C474.102 52.751 474.696 52.958 475.146 53.372C475.614 53.768 475.848 54.263 475.848 54.857C475.848 55.631 475.587 56.261 475.065 56.747C474.561 57.215 473.886 57.449 473.04 57.449ZM481.486 74.216C480.442 74.216 479.551 74.009 478.813 73.595C478.075 73.163 477.544 72.551 477.22 71.759C476.914 70.949 476.869 69.995 477.085 68.897L479.596 56.261H483.808L481.297 68.87C481.189 69.482 481.252 69.968 481.486 70.328C481.72 70.688 482.152 70.868 482.782 70.868C483.07 70.868 483.358 70.823 483.646 70.733C483.952 70.643 484.231 70.517 484.483 70.355L485.104 73.352C484.582 73.676 484.006 73.901 483.376 74.027C482.746 74.153 482.116 74.216 481.486 74.216ZM476.005 63.038L476.653 59.798H486.724L486.076 63.038H476.005ZM494.58 74.216C493.104 74.216 491.817 73.946 490.719 73.406C489.621 72.866 488.766 72.11 488.154 71.138C487.56 70.166 487.263 69.023 487.263 67.709C487.263 66.089 487.641 64.649 488.397 63.389C489.153 62.111 490.188 61.103 491.502 60.365C492.834 59.627 494.346 59.258 496.038 59.258C497.532 59.258 498.819 59.528 499.899 60.068C500.997 60.608 501.843 61.364 502.437 62.336C503.049 63.29 503.355 64.433 503.355 65.765C503.355 67.367 502.977 68.807 502.221 70.085C501.465 71.363 500.43 72.371 499.116 73.109C497.802 73.847 496.29 74.216 494.58 74.216ZM494.85 70.76C495.678 70.76 496.407 70.562 497.037 70.166C497.685 69.752 498.189 69.185 498.549 68.465C498.909 67.745 499.089 66.908 499.089 65.954C499.089 64.982 498.801 64.199 498.225 63.605C497.649 63.011 496.839 62.714 495.795 62.714C494.967 62.714 494.229 62.921 493.581 63.335C492.951 63.731 492.447 64.289 492.069 65.009C491.709 65.729 491.529 66.566 491.529 67.52C491.529 68.51 491.817 69.302 492.393 69.896C492.969 70.472 493.788 70.76 494.85 70.76ZM504.794 74L507.683 59.474H511.679L510.842 63.605L510.464 62.417C511.112 61.247 511.958 60.428 513.002 59.96C514.046 59.492 515.297 59.258 516.755 59.258L515.999 63.146C515.819 63.128 515.648 63.119 515.486 63.119C515.342 63.101 515.189 63.092 515.027 63.092C513.785 63.092 512.768 63.398 511.976 64.01C511.202 64.622 510.68 65.612 510.41 66.98L509.006 74H504.794ZM518.21 74.216C517.49 74.216 516.896 73.991 516.428 73.541C515.96 73.073 515.726 72.488 515.726 71.786C515.726 70.94 515.996 70.265 516.536 69.761C517.094 69.239 517.76 68.978 518.534 68.978C519.254 68.978 519.839 69.203 520.289 69.653C520.757 70.103 520.991 70.688 520.991 71.408C520.991 71.966 520.856 72.461 520.586 72.893C520.334 73.307 520.001 73.631 519.587 73.865C519.173 74.099 518.714 74.216 518.21 74.216Z" fill="#211C4C"/>
<path d="M140.463 77.375H522.989V78.725H140.463V77.375Z" fill="#211C4C"/>
<path d="M522.982 77.375H530.164V78.725H522.982V77.375Z" fill="#211C4C"/>
<path d="M0 120.375H613.635V121.725H0V120.375Z" fill="black"/>
</svg>
