<svg width="2342" height="656" viewBox="0 0 2342 656" fill="none" xmlns="http://www.w3.org/2000/svg">
<path d="M0 225.887L55.9478 219.079C111.896 212.581 223.791 198.966 335.166 229.909C446.802 260.853 557.656 336.355 669.292 355.23C780.667 374.415 892.562 337.283 1003.94 315.004C1115.57 293.034 1226.43 285.608 1338.06 295.509C1449.44 305.411 1561.33 332.023 1672.71 314.075C1784.34 296.128 1895.2 233.004 2006.83 173.283C2118.21 113.562 2230.1 56.6265 2286.05 28.468L2342 0V656H2286.05C2230.1 656 2118.21 656 2006.83 656C1895.2 656 1784.34 656 1672.71 656C1561.33 656 1449.44 656 1338.06 656C1226.43 656 1115.57 656 1003.94 656C892.562 656 780.667 656 669.292 656C557.656 656 446.802 656 335.166 656C223.791 656 111.896 656 55.9478 656H0V225.887Z" fill="#1F188D"/>
</svg>
