<svg width="339" height="373" viewBox="0 0 339 373" fill="none" xmlns="http://www.w3.org/2000/svg">
<g clip-path="url(#clip0_185_1229)">
<path d="M83.5417 366.43C73.3333 366.43 64.2188 363.065 56.1979 356.335C48.1771 349.605 42.9514 340.804 40.5208 329.933H15V149H241.042L308.854 242.572V275.575C317.118 279.458 323.681 285.347 328.542 293.241C333.403 301.136 335.833 309.872 335.833 319.449C335.833 332.65 331.58 343.781 323.073 352.84C314.566 361.9 304.115 366.43 291.719 366.43C281.51 366.43 272.457 363 264.557 356.141C256.658 349.281 251.25 340.545 248.333 329.933H126.562C123.646 340.545 118.299 349.281 110.521 356.141C102.743 363 93.75 366.43 83.5417 366.43ZM36.875 227.43H105.781V172.296H36.875V227.43ZM127.656 306.637H213.698V172.296H127.656V227.43H179.062V250.726H127.656V306.637ZM235.573 245.679H281.875L235.573 182.003V245.679ZM83.5417 343.134C89.8611 343.134 95.1476 340.869 99.401 336.339C103.655 331.809 105.781 326.179 105.781 319.449C105.781 312.719 103.655 307.09 99.401 302.56C95.1476 298.03 89.8611 295.765 83.5417 295.765C77.2222 295.765 71.9358 298.03 67.6823 302.56C63.4288 307.09 61.3021 312.719 61.3021 319.449C61.3021 326.179 63.4288 331.809 67.6823 336.339C71.9358 340.869 77.2222 343.134 83.5417 343.134ZM291.719 343.134C298.038 343.134 303.325 340.869 307.578 336.339C311.832 331.809 313.958 326.179 313.958 319.449C313.958 312.719 311.832 307.09 307.578 302.56C303.325 298.03 298.038 295.765 291.719 295.765C285.399 295.765 280.113 298.03 275.859 302.56C271.606 307.09 269.479 312.719 269.479 319.449C269.479 326.179 271.606 331.809 275.859 336.339C280.113 340.869 285.399 343.134 291.719 343.134ZM188.906 459.614L103.229 412.634H161.927V383.902L247.604 428.164H188.906V459.614ZM36.875 250.726V306.637H41.25C43.9236 296.8 49.2101 288.647 57.1094 282.176C65.0087 275.705 73.8194 272.469 83.5417 272.469C87.6736 272.469 91.5625 273.116 95.2083 274.41C98.8542 275.705 102.378 277.646 105.781 280.234V250.726H36.875ZM235.573 306.637H249.062C251.736 297.318 256.476 289.488 263.281 283.146C270.087 276.805 277.986 273.634 286.979 273.634V268.975H235.573V306.637ZM249.062 268.975H235.573H286.979H249.062ZM41.25 250.726H36.875H105.781H41.25Z" fill="url(#paint0_linear_185_1229)"/>
</g>
<defs>
<linearGradient id="paint0_linear_185_1229" x1="175.417" y1="149" x2="175.417" y2="459.614" gradientUnits="userSpaceOnUse">
<stop stop-color="#2013E9"/>
<stop offset="1" stop-color="#E756EF"/>
</linearGradient>
<clipPath id="clip0_185_1229">
<rect width="350" height="372.737" fill="white" transform="translate(0 0.140625)"/>
</clipPath>
</defs>
</svg>
