<svg width="322" height="312" viewBox="0 0 322 312" fill="none" xmlns="http://www.w3.org/2000/svg">
<path d="M69.1276 218.164C58.9193 218.164 49.8047 214.799 41.7839 208.069C33.763 201.339 28.5373 192.538 26.1068 181.667H0.585938V0.734375H226.628L294.44 94.3068V127.31C302.704 131.192 309.267 137.081 314.128 144.976C318.989 152.87 321.419 161.606 321.419 171.184C321.419 184.385 317.166 195.515 308.659 204.575C300.152 213.634 289.701 218.164 277.305 218.164C267.096 218.164 258.043 214.734 250.143 207.875C242.244 201.016 236.836 192.28 233.919 181.667H112.148C109.232 192.28 103.885 201.016 96.1068 207.875C88.329 214.734 79.3359 218.164 69.1276 218.164ZM22.4609 79.1644H91.3672V24.0304H22.4609V79.1644ZM113.242 158.371H199.284V24.0304H113.242V79.1644H164.648V102.46H113.242V158.371ZM221.159 97.4129H267.461L221.159 33.7371V97.4129ZM69.1276 194.868C75.447 194.868 80.7335 192.603 84.987 188.073C89.2405 183.544 91.3672 177.914 91.3672 171.184C91.3672 164.454 89.2405 158.824 84.987 154.294C80.7335 149.764 75.447 147.499 69.1276 147.499C62.8082 147.499 57.5217 149.764 53.2682 154.294C49.0148 158.824 46.888 164.454 46.888 171.184C46.888 177.914 49.0148 183.544 53.2682 188.073C57.5217 192.603 62.8082 194.868 69.1276 194.868ZM277.305 194.868C283.624 194.868 288.911 192.603 293.164 188.073C297.418 183.544 299.544 177.914 299.544 171.184C299.544 164.454 297.418 158.824 293.164 154.294C288.911 149.764 283.624 147.499 277.305 147.499C270.985 147.499 265.699 149.764 261.445 154.294C257.192 158.824 255.065 164.454 255.065 171.184C255.065 177.914 257.192 183.544 261.445 188.073C265.699 192.603 270.985 194.868 277.305 194.868ZM174.492 311.348L88.8151 264.368H147.513V235.636L233.19 279.899H174.492V311.348ZM22.4609 102.46V158.371H26.8359C29.5095 148.535 34.796 140.381 42.6953 133.91C50.5946 127.439 59.4054 124.203 69.1276 124.203C73.2595 124.203 77.1484 124.85 80.7943 126.145C84.4401 127.439 87.9644 129.38 91.3672 131.969V102.46H22.4609ZM221.159 158.371H234.648C237.322 149.052 242.062 141.222 248.867 134.881C255.673 128.539 263.572 125.368 272.565 125.368V120.709H221.159V158.371ZM234.648 120.709H221.159H272.565H234.648ZM26.8359 102.46H22.4609H91.3672H26.8359Z" fill="url(#paint0_linear_185_1230)"/>
<defs>
<linearGradient id="paint0_linear_185_1230" x1="161.003" y1="0.734375" x2="161.003" y2="311.348" gradientUnits="userSpaceOnUse">
<stop stop-color="#2013E9"/>
<stop offset="1" stop-color="#E756EF"/>
</linearGradient>
</defs>
</svg>
