<svg width="121" height="120" viewBox="0 0 121 120" fill="none" xmlns="http://www.w3.org/2000/svg">
<path d="M28.8984 85C25.3984 85 22.2734 83.9167 19.5234 81.75C16.7734 79.5833 14.9818 76.75 14.1484 73.25H5.39844V15H82.8984L106.148 45.125V55.75C108.982 57 111.232 58.8958 112.898 61.4375C114.565 63.9792 115.398 66.7917 115.398 69.875C115.398 74.125 113.94 77.7083 111.023 80.625C108.107 83.5417 104.523 85 100.273 85C96.7734 85 93.6693 83.8958 90.9609 81.6875C88.2526 79.4792 86.3984 76.6667 85.3984 73.25H43.6484C42.6484 76.6667 40.8151 79.4792 38.1484 81.6875C35.4818 83.8958 32.3984 85 28.8984 85ZM12.8984 40.25H36.5234V22.5H12.8984V40.25ZM44.0234 65.75H73.5234V22.5H44.0234V40.25H61.6484V47.75H44.0234V65.75ZM81.0234 46.125H96.8984L81.0234 25.625V46.125ZM28.8984 77.5C31.0651 77.5 32.8776 76.7708 34.3359 75.3125C35.7943 73.8542 36.5234 72.0417 36.5234 69.875C36.5234 67.7083 35.7943 65.8958 34.3359 64.4375C32.8776 62.9792 31.0651 62.25 28.8984 62.25C26.7318 62.25 24.9193 62.9792 23.4609 64.4375C22.0026 65.8958 21.2734 67.7083 21.2734 69.875C21.2734 72.0417 22.0026 73.8542 23.4609 75.3125C24.9193 76.7708 26.7318 77.5 28.8984 77.5ZM100.273 77.5C102.44 77.5 104.253 76.7708 105.711 75.3125C107.169 73.8542 107.898 72.0417 107.898 69.875C107.898 67.7083 107.169 65.8958 105.711 64.4375C104.253 62.9792 102.44 62.25 100.273 62.25C98.1068 62.25 96.2943 62.9792 94.8359 64.4375C93.3776 65.8958 92.6484 67.7083 92.6484 69.875C92.6484 72.0417 93.3776 73.8542 94.8359 75.3125C96.2943 76.7708 98.1068 77.5 100.273 77.5ZM65.0234 115L35.6484 99.875H55.7734V90.625L85.1484 104.875H65.0234V115ZM12.8984 47.75V65.75H14.3984C15.3151 62.5833 17.1276 59.9583 19.8359 57.875C22.5443 55.7917 25.5651 54.75 28.8984 54.75C30.3151 54.75 31.6484 54.9583 32.8984 55.375C34.1484 55.7917 35.3568 56.4167 36.5234 57.25V47.75H12.8984ZM81.0234 65.75H85.6484C86.5651 62.75 88.1901 60.2292 90.5234 58.1875C92.8568 56.1458 95.5651 55.125 98.6484 55.125V53.625H81.0234V65.75ZM85.6484 53.625H81.0234H98.6484H85.6484ZM14.3984 47.75H12.8984H36.5234H14.3984Z" fill="white"/>
</svg>
