<svg width="38" height="38" viewBox="0 0 38 38" fill="none" xmlns="http://www.w3.org/2000/svg">
<g opacity="0.4">
<path d="M31.4688 33.25C28.2493 33.25 25.0497 32.4583 21.8698 30.875C18.6899 29.2917 15.8333 27.2333 13.3 24.7C10.7667 22.1667 8.70833 19.3101 7.125 16.1302C5.54167 12.9503 4.75 9.75069 4.75 6.53125C4.75 6.02231 4.91964 5.5982 5.25892 5.25892C5.5982 4.91964 6.02231 4.75 6.53125 4.75H12.0729C12.4321 4.75 12.7528 4.87535 13.035 5.12604C13.3172 5.37674 13.4979 5.71319 13.5771 6.13542L14.6458 11.1229C14.6986 11.4924 14.692 11.8288 14.626 12.1323C14.5601 12.4358 14.4215 12.6931 14.2104 12.9042L10.2521 16.9021C11.7299 19.3562 13.3858 21.4937 15.2198 23.3146C17.0538 25.1354 19.1319 26.6792 21.4542 27.9458L25.2146 24.0667C25.4785 23.7764 25.7819 23.5719 26.125 23.4531C26.4681 23.3344 26.8111 23.3146 27.1542 23.3937L31.8646 24.4229C32.2687 24.512 32.6006 24.7124 32.8603 25.0241C33.1201 25.3358 33.25 25.7028 33.25 26.125V31.4688C33.25 31.9777 33.0804 32.4018 32.7411 32.7411C32.4018 33.0804 31.9777 33.25 31.4688 33.25ZM9.06458 14.725L12.2708 11.4792L11.3604 7.125H7.125C7.125 8.15417 7.28333 9.28229 7.6 10.5094C7.91667 11.7365 8.40486 13.1417 9.06458 14.725ZM23.6708 29.0938C24.7528 29.5951 25.9271 30.0042 27.1938 30.3208C28.4604 30.6375 29.6875 30.8222 30.875 30.875V26.6396L26.7979 25.8083L23.6708 29.0938Z" fill="#F0ECEC"/>
</g>
</svg>
