<svg width="18" height="17" viewBox="0 0 18 17" fill="none" xmlns="http://www.w3.org/2000/svg">
<path fill-rule="evenodd" clip-rule="evenodd" d="M15.1622 1.14692L11.5102 4.79892C11.4946 4.81455 11.4782 4.82893 11.4611 4.84206C11.4478 4.85943 11.4332 4.87613 11.4173 4.89202L9.71785 6.59146L10.4247 7.29826L15.8691 1.85381C16.0648 1.65815 16.0648 1.34208 15.8687 1.14647C15.674 0.95133 15.3573 0.95133 15.1622 1.14692ZM11.1318 8.00537L16.5762 2.56092C17.1626 1.97458 17.1626 1.02465 16.5758 0.439357C15.9913 -0.146603 15.04 -0.146604 14.4547 0.440263L10.8031 4.09181C10.7872 4.10771 10.7726 4.1244 10.7593 4.14177C10.7423 4.1549 10.7259 4.16928 10.7102 4.18491L9.01075 5.88436L8.69181 5.56541C8.68689 5.56049 8.68189 5.5557 8.67682 5.55103L3.57401 0.44821C2.98909 -0.138204 2.03781 -0.138204 1.45245 0.448663C0.867716 1.0349 0.867716 1.98413 1.4529 2.56932L6.88935 8.00577L1.4622 13.4329C1.40017 13.4931 1.31469 13.5947 1.23092 13.7307C0.882375 14.297 0.880946 14.9636 1.45845 15.5403C2.04626 16.1153 2.7064 16.1161 3.27424 15.7841C3.4105 15.7044 3.51276 15.6229 3.57875 15.5586L7.96631 11.1711C8.16157 10.9758 8.16157 10.6592 7.96631 10.4639C7.77105 10.2687 7.45446 10.2687 7.2592 10.4639L2.8762 14.8469C2.8688 14.8541 2.82814 14.8865 2.7695 14.9208C2.55598 15.0456 2.38251 15.0454 2.1732 14.8408C1.95538 14.6233 1.95573 14.4609 2.08251 14.255C2.11802 14.1973 2.15182 14.1571 2.16398 14.1453L9.01074 7.29856L9.71755 8.00537L8.7451 8.97781C8.67954 9.04338 8.63599 9.12262 8.61445 9.20635C8.50352 9.39765 8.52994 9.64675 8.6937 9.81052L14.4517 15.5686C15.038 16.1548 15.9876 16.1548 16.5738 15.5686C17.159 14.9819 17.159 14.0326 16.5738 13.4474L11.1318 8.00537ZM10.4247 8.71247L9.71726 9.41987L15.1588 14.8614C15.3546 15.0572 15.671 15.0572 15.8663 14.8619C16.0615 14.6661 16.0615 14.3494 15.8667 14.1546L10.4247 8.71247ZM8.30335 6.59177L7.59645 7.29866L2.16001 1.86221C1.96519 1.6674 1.96519 1.35063 2.16046 1.15487C2.3551 0.95973 2.67181 0.95973 2.86645 1.15487L8.30335 6.59177Z" fill="black"/>
</svg>
