<svg width="20" height="15" viewBox="0 0 20 15" fill="none" xmlns="http://www.w3.org/2000/svg">
<path fill-rule="evenodd" clip-rule="evenodd" d="M5.00024 14.9993C5.01866 14.9993 5.03706 14.9992 5.05544 14.999H14.8062C17.451 14.999 19.7327 13.0526 19.976 10.4882C20.2582 7.5304 17.9448 4.99902 15.0002 4.99902C14.9923 4.99902 14.9844 4.9992 14.9765 4.99957C12.2261 5.0122 9.99994 7.24619 9.99994 9.99952C9.99994 10.2757 10.2238 10.4995 10.4999 10.4995C10.7761 10.4995 10.9999 10.2757 10.9999 9.99952C10.9999 7.79066 12.7911 5.99952 14.9999 5.99952C15.0071 5.99952 15.0142 5.99937 15.0212 5.99907C17.3672 6.01107 19.2059 8.03082 18.9805 10.3935C18.7872 12.4305 16.9485 13.999 14.8062 13.999H8.00159C8.26722 13.7993 8.51404 13.5724 8.73794 13.3205C8.9214 13.1141 8.90281 12.7981 8.69642 12.6146C8.49003 12.4312 8.17399 12.4497 7.99053 12.6561C7.24681 13.4928 6.18914 13.9852 5.04967 13.999H5.00024C2.64341 13.999 0.792049 11.9744 1.01896 9.60467C1.2131 7.56748 3.05203 5.99902 5.19424 5.99902C5.64903 5.99902 6.00024 5.64951 6.00024 5.21502C6.00024 3.0148 7.64751 1.13854 9.74232 1.00805C11.5453 0.895089 13.1695 1.98606 13.7656 3.64694C13.8589 3.90684 14.1453 4.04191 14.4052 3.94862C14.6651 3.85533 14.8001 3.569 14.7068 3.3091C13.9616 1.23297 11.931 -0.131036 9.67997 0.00999456C7.11203 0.169958 5.10776 2.38035 5.00442 5.00236C2.44131 5.09282 0.262006 7.0068 0.0234924 9.50958C-0.259174 12.4616 2.04523 14.9884 4.9818 14.999C4.98792 14.9992 4.99407 14.9993 5.00024 14.9993ZM9.99994 2.99952C8.89508 2.99952 7.99994 3.89466 7.99994 4.99952C7.99994 5.27566 7.77608 5.49952 7.49994 5.49952C7.22379 5.49952 6.99994 5.27566 6.99994 4.99952C6.99994 3.34237 8.3428 1.99952 9.99994 1.99952C10.2761 1.99952 10.4999 2.22337 10.4999 2.49952C10.4999 2.77566 10.2761 2.99952 9.99994 2.99952Z" fill="black"/>
</svg>
