<svg width="35" height="35" viewBox="0 0 35 35" fill="none" xmlns="http://www.w3.org/2000/svg">
<path d="M32.5057 0.000272446C32.1111 0.0119914 31.7361 0.176054 31.4588 0.46121L17.0213 14.9026L2.58378 0.46121C2.29862 0.172148 1.9119 0.00808542 1.50565 0.00808542C0.896279 0.00808542 0.345498 0.379179 0.115029 0.945585C-0.11544 1.51199 0.0212792 2.16043 0.458779 2.58621L14.9002 17.0237L0.458779 31.4612C0.0681542 31.8401 -0.0880956 32.3987 0.0486234 32.9221C0.185341 33.4495 0.595498 33.8596 1.12284 33.9964C1.64628 34.1331 2.20487 33.9768 2.58378 33.5862L17.0213 19.1448L31.4588 33.5862C31.8377 33.9768 32.3963 34.1331 32.9197 33.9964C33.4471 33.8596 33.8572 33.4495 33.9939 32.9221C34.1307 32.3987 33.9744 31.8401 33.5838 31.4612L19.1424 17.0237L33.5838 2.58621C34.0291 2.15652 34.1658 1.49637 33.9275 0.926055C33.6892 0.355742 33.1267 -0.0114456 32.5057 0.000272446Z" fill="black"/>
</svg>
