<svg width="17" height="18" viewBox="0 0 17 18" fill="none" xmlns="http://www.w3.org/2000/svg">
<path fill-rule="evenodd" clip-rule="evenodd" d="M14.5451 0C15.3732 0 16.0451 0.671858 16.0451 1.5V14.38C16.0451 14.6129 15.9913 14.842 15.8872 15.0519L14.5815 17.6591C14.4654 17.8947 14.2328 18.0053 14.0073 17.9922H0.500183C0.224041 17.9922 0.000183105 17.7683 0.000183105 17.4922C0.000183105 17.2161 0.224041 16.9922 0.500183 16.9922H13.1735L12.2022 15.0503C12.0989 14.8422 12.0451 14.6131 12.0451 14.381V1.5C12.0451 0.671858 12.7169 0 13.5451 0H14.5451ZM14.0445 16.4982L14.3419 17.0927C14.2582 17.0296 14.1541 16.9922 14.0412 16.9922H13.7971L14.0445 16.4982ZM13.0562 14.4863C13.0649 14.5273 13.0787 14.567 13.0973 14.6043L14.0445 16.4982L14.9922 14.6057C15.0111 14.5676 15.0251 14.5276 15.0339 14.4863H13.0562ZM13.0451 13.4863H15.0451V1.5C15.0451 1.22414 14.8209 1 14.5451 1H13.5451C13.2692 1 13.0451 1.22414 13.0451 1.5V13.4863Z" fill="white"/>
</svg>
