<svg width="93" height="16" viewBox="0 0 93 16" fill="none" xmlns="http://www.w3.org/2000/svg">
<path d="M3.56 11.8L3.38 8.06L10.08 0.999999H13.68L7.64 7.5L5.84 9.42L3.56 11.8ZM0.66 15V0.999999H3.88V15H0.66ZM10.24 15L5.26 8.9L7.38 6.6L14.02 15H10.24ZM19.4717 15.24C18.3517 15.24 17.2784 15.0933 16.2517 14.8C15.2251 14.4933 14.3984 14.1 13.7717 13.62L14.8717 11.18C15.4717 11.6067 16.1784 11.96 16.9917 12.24C17.8184 12.5067 18.6517 12.64 19.4917 12.64C20.1317 12.64 20.6451 12.58 21.0317 12.46C21.4317 12.3267 21.7251 12.1467 21.9117 11.92C22.0984 11.6933 22.1917 11.4333 22.1917 11.14C22.1917 10.7667 22.0451 10.4733 21.7517 10.26C21.4584 10.0333 21.0717 9.85333 20.5917 9.72C20.1117 9.57333 19.5784 9.44 18.9917 9.32C18.4184 9.18667 17.8384 9.02667 17.2517 8.84C16.6784 8.65333 16.1517 8.41333 15.6717 8.12C15.1917 7.82667 14.7984 7.44 14.4917 6.96C14.1984 6.48 14.0517 5.86667 14.0517 5.12C14.0517 4.32 14.2651 3.59333 14.6917 2.94C15.1317 2.27333 15.7851 1.74667 16.6517 1.36C17.5317 0.96 18.6317 0.76 19.9517 0.76C20.8317 0.76 21.6984 0.866666 22.5517 1.08C23.4051 1.28 24.1584 1.58667 24.8117 2L23.8117 4.46C23.1584 4.08667 22.5051 3.81333 21.8517 3.64C21.1984 3.45333 20.5584 3.36 19.9317 3.36C19.3051 3.36 18.7917 3.43333 18.3917 3.58C17.9917 3.72667 17.7051 3.92 17.5317 4.16C17.3584 4.38667 17.2717 4.65333 17.2717 4.96C17.2717 5.32 17.4184 5.61333 17.7117 5.84C18.0051 6.05333 18.3917 6.22667 18.8717 6.36C19.3517 6.49333 19.8784 6.62667 20.4517 6.76C21.0384 6.89333 21.6184 7.04667 22.1917 7.22C22.7784 7.39333 23.3117 7.62667 23.7917 7.92C24.2717 8.21333 24.6584 8.6 24.9517 9.08C25.2584 9.56 25.4117 10.1667 25.4117 10.9C25.4117 11.6867 25.1917 12.4067 24.7517 13.06C24.3117 13.7133 23.6517 14.24 22.7717 14.64C21.9051 15.04 20.8051 15.24 19.4717 15.24ZM27.2056 15V3.5H32.6256C33.9456 3.5 35.0923 3.73333 36.0656 4.2C37.0523 4.66667 37.8123 5.33333 38.3456 6.2C38.8923 7.05333 39.1656 8.07333 39.1656 9.26C39.1656 10.4333 38.8923 11.4533 38.3456 12.32C37.8123 13.1733 37.0523 13.8333 36.0656 14.3C35.0923 14.7667 33.9456 15 32.6256 15H27.2056ZM30.3656 12.52H32.5256C33.2323 12.52 33.839 12.3933 34.3456 12.14C34.8656 11.8867 35.2656 11.52 35.5456 11.04C35.8256 10.5467 35.9656 9.95333 35.9656 9.26C35.9656 8.55333 35.8256 7.96 35.5456 7.48C35.2656 6.98667 34.8656 6.61333 34.3456 6.36C33.839 6.10667 33.2323 5.98 32.5256 5.98H30.3656V12.52ZM43.9048 8.02H49.4648V10.32H43.9048V8.02ZM44.2248 12.58H50.3648V15H41.1048V3.5H50.1448V5.92H44.2248V12.58ZM61.3873 11.5C61.3873 12.22 61.1807 12.86 60.7673 13.42C60.3673 13.98 59.7807 14.42 59.0073 14.74C58.2473 15.06 57.3073 15.22 56.1873 15.22C55.2673 15.22 54.3607 15.1067 53.4673 14.88C52.5873 14.6533 51.874 14.3533 51.3273 13.98L52.4273 11.64C52.9473 11.9867 53.554 12.26 54.2473 12.46C54.9407 12.66 55.6473 12.76 56.3673 12.76C57.074 12.76 57.5673 12.66 57.8473 12.46C58.1273 12.26 58.2673 12.0267 58.2673 11.76C58.2673 11.4933 58.1407 11.28 57.8873 11.12C57.6473 10.96 57.3273 10.8333 56.9273 10.74C56.5407 10.6333 56.1073 10.5333 55.6273 10.44C55.1607 10.3467 54.6873 10.2267 54.2073 10.08C53.7407 9.93333 53.3073 9.74 52.9073 9.5C52.5207 9.24667 52.2007 8.92 51.9473 8.52C51.7073 8.10667 51.5873 7.59333 51.5873 6.98C51.5873 6.26 51.794 5.62667 52.2073 5.08C52.634 4.52 53.234 4.08 54.0073 3.76C54.7807 3.44 55.7007 3.28 56.7673 3.28C57.4873 3.28 58.2207 3.36 58.9673 3.52C59.714 3.68 60.3673 3.93333 60.9273 4.28L59.9073 6.62C59.3873 6.3 58.8473 6.07333 58.2873 5.94C57.7407 5.80667 57.194 5.74 56.6473 5.74C55.9807 5.74 55.494 5.84 55.1873 6.04C54.8807 6.24 54.7273 6.49333 54.7273 6.8C54.7273 7.06667 54.8473 7.28 55.0873 7.44C55.3273 7.6 55.6407 7.73333 56.0273 7.84C56.4273 7.93333 56.8673 8.02667 57.3473 8.12C57.8273 8.21333 58.3007 8.33333 58.7673 8.48C59.234 8.61333 59.6673 8.8 60.0673 9.04C60.4673 9.28 60.7873 9.6 61.0273 10C61.2673 10.3867 61.3873 10.8867 61.3873 11.5ZM63.083 15V3.5H66.243V15H63.083ZM79.4339 13.76C79.0072 14.0667 78.5272 14.3333 77.9939 14.56C77.4739 14.7733 76.9272 14.9333 76.3539 15.04C75.7939 15.16 75.2406 15.22 74.6939 15.22C73.4139 15.22 72.2806 14.9667 71.2939 14.46C70.3072 13.94 69.5339 13.2267 68.9739 12.32C68.4272 11.4133 68.1539 10.3933 68.1539 9.26C68.1539 8.1 68.4339 7.07333 68.9939 6.18C69.5539 5.28667 70.3272 4.58 71.3139 4.06C72.3006 3.54 73.4206 3.28 74.6739 3.28C75.7939 3.28 76.7672 3.45333 77.5939 3.8C78.4339 4.13333 79.1339 4.64667 79.6939 5.34L77.6139 7.2C77.2272 6.74667 76.7872 6.41333 76.2939 6.2C75.8139 5.97333 75.2872 5.86 74.7139 5.86C74.0606 5.86 73.4806 6.00667 72.9739 6.3C72.4672 6.58 72.0672 6.97333 71.7739 7.48C71.4806 7.98667 71.3339 8.58 71.3339 9.26C71.3339 9.91333 71.4806 10.5 71.7739 11.02C72.0672 11.5267 72.4672 11.9267 72.9739 12.22C73.4806 12.5 74.0739 12.64 74.7539 12.64C75.3139 12.64 75.8206 12.5533 76.2739 12.38C76.7406 12.2067 77.2006 11.9467 77.6539 11.6L79.4339 13.76ZM76.5539 13.8V9.1H79.4339V13.76L76.5539 13.8ZM81.8775 15V3.5H84.4775L90.9575 11.28H89.7775V3.5H92.8775V15H90.2775L83.7775 7.22H84.9775V15H81.8775Z" fill="black"/>
</svg>
