<svg width="26" height="32" viewBox="0 0 26 32" fill="none" xmlns="http://www.w3.org/2000/svg">
<path d="M13.0061 15.6016C13.7691 15.6016 14.421 15.3299 14.962 14.7866C15.503 14.2433 15.7734 13.5902 15.7734 12.8272C15.7734 12.0643 15.5018 11.4123 14.9585 10.8714C14.4152 10.3304 13.762 10.0599 12.9991 10.0599C12.2362 10.0599 11.5842 10.3316 11.0432 10.8749C10.5023 11.4182 10.2318 12.0713 10.2318 12.8343C10.2318 13.5972 10.5034 14.2491 11.0468 14.7901C11.59 15.3311 12.2432 15.6016 13.0061 15.6016ZM13.0026 28.7036C16.5123 25.5106 19.105 22.6144 20.7807 20.0151C22.4564 17.4158 23.2943 15.1266 23.2943 13.1474C23.2943 10.039 22.3008 7.49391 20.314 5.51197C18.3271 3.53003 15.89 2.53906 13.0026 2.53906C10.1152 2.53906 7.67809 3.53003 5.69125 5.51197C3.70437 7.49391 2.71094 10.039 2.71094 13.1474C2.71094 15.1266 3.56858 17.4158 5.28385 20.0151C6.99913 22.6144 9.57205 25.5106 13.0026 28.7036ZM13.0026 31.8307C8.75399 28.2155 5.58073 24.8575 3.48281 21.7568C1.3849 18.6561 0.335938 15.7863 0.335938 13.1474C0.335938 9.18906 1.6092 6.03559 4.15573 3.68698C6.70226 1.33837 9.65122 0.164062 13.0026 0.164062C16.354 0.164062 19.303 1.33837 21.8495 3.68698C24.396 6.03559 25.6693 9.18906 25.6693 13.1474C25.6693 15.7863 24.6203 18.6561 22.5224 21.7568C20.4245 24.8575 17.2512 28.2155 13.0026 31.8307Z" fill="#999999"/>
</svg>
