<svg width="38" height="38" viewBox="0 0 38 38" fill="none" xmlns="http://www.w3.org/2000/svg">
<path d="M19.0061 18.6016C19.7691 18.6016 20.421 18.3299 20.962 17.7866C21.503 17.2433 21.7734 16.5902 21.7734 15.8272C21.7734 15.0643 21.5018 14.4123 20.9585 13.8714C20.4152 13.3304 19.762 13.0599 18.9991 13.0599C18.2362 13.0599 17.5842 13.3316 17.0432 13.8749C16.5023 14.4182 16.2318 15.0713 16.2318 15.8343C16.2318 16.5972 16.5034 17.2491 17.0468 17.7901C17.59 18.3311 18.2432 18.6016 19.0061 18.6016ZM19.0026 31.7036C22.5123 28.5106 25.105 25.6144 26.7807 23.0151C28.4564 20.4158 29.2943 18.1266 29.2943 16.1474C29.2943 13.039 28.3008 10.4939 26.314 8.51197C24.3271 6.53003 21.89 5.53906 19.0026 5.53906C16.1152 5.53906 13.6781 6.53003 11.6912 8.51197C9.70437 10.4939 8.71094 13.039 8.71094 16.1474C8.71094 18.1266 9.56858 20.4158 11.2839 23.0151C12.9991 25.6144 15.572 28.5106 19.0026 31.7036ZM19.0026 34.8307C14.754 31.2155 11.5807 27.8575 9.48281 24.7568C7.3849 21.6561 6.33594 18.7863 6.33594 16.1474C6.33594 12.1891 7.6092 9.03559 10.1557 6.68698C12.7023 4.33837 15.6512 3.16406 19.0026 3.16406C22.354 3.16406 25.303 4.33837 27.8495 6.68698C30.396 9.03559 31.6693 12.1891 31.6693 16.1474C31.6693 18.7863 30.6203 21.6561 28.5224 24.7568C26.4245 27.8575 23.2512 31.2155 19.0026 34.8307Z" fill="#999999"/>
</svg>
