<svg width="185" height="30" viewBox="0 0 185 30" fill="none" xmlns="http://www.w3.org/2000/svg">
<path d="M6.12 22.6L5.76 15.12L19.16 0.999998H26.36L14.28 14L10.68 17.84L6.12 22.6ZM0.32 29V0.999998H6.76V29H0.32ZM19.48 29L9.52 16.8L13.76 12.2L27.04 29H19.48ZM37.9434 29.48C35.7034 29.48 33.5568 29.1867 31.5034 28.6C29.4501 27.9867 27.7968 27.2 26.5434 26.24L28.7434 21.36C29.9434 22.2133 31.3568 22.92 32.9834 23.48C34.6368 24.0133 36.3034 24.28 37.9834 24.28C39.2634 24.28 40.2901 24.16 41.0634 23.92C41.8634 23.6533 42.4501 23.2933 42.8234 22.84C43.1968 22.3867 43.3834 21.8667 43.3834 21.28C43.3834 20.5333 43.0901 19.9467 42.5034 19.52C41.9168 19.0667 41.1434 18.7067 40.1834 18.44C39.2234 18.1467 38.1568 17.88 36.9834 17.64C35.8368 17.3733 34.6768 17.0533 33.5034 16.68C32.3568 16.3067 31.3034 15.8267 30.3434 15.24C29.3834 14.6533 28.5968 13.88 27.9834 12.92C27.3968 11.96 27.1034 10.7333 27.1034 9.24C27.1034 7.64 27.5301 6.18667 28.3834 4.88C29.2634 3.54666 30.5701 2.49333 32.3034 1.72C34.0634 0.919999 36.2634 0.52 38.9034 0.52C40.6634 0.52 42.3968 0.733332 44.1034 1.16C45.8101 1.56 47.3168 2.17333 48.6234 3L46.6234 7.92C45.3168 7.17333 44.0101 6.62667 42.7034 6.28C41.3968 5.90667 40.1168 5.72 38.8634 5.72C37.6101 5.72 36.5834 5.86667 35.7834 6.16C34.9834 6.45333 34.4101 6.84 34.0634 7.32C33.7168 7.77333 33.5434 8.30667 33.5434 8.92C33.5434 9.64 33.8368 10.2267 34.4234 10.68C35.0101 11.1067 35.7834 11.4533 36.7434 11.72C37.7034 11.9867 38.7568 12.2533 39.9034 12.52C41.0768 12.7867 42.2368 13.0933 43.3834 13.44C44.5568 13.7867 45.6234 14.2533 46.5834 14.84C47.5434 15.4267 48.3168 16.2 48.9034 17.16C49.5168 18.12 49.8234 19.3333 49.8234 20.8C49.8234 22.3733 49.3834 23.8133 48.5034 25.12C47.6234 26.4267 46.3034 27.48 44.5434 28.28C42.8101 29.08 40.6101 29.48 37.9434 29.48ZM53.4112 29V6H64.2513C66.8913 6 69.1846 6.46667 71.1313 7.4C73.1046 8.33333 74.6246 9.66667 75.6912 11.4C76.7846 13.1067 77.3312 15.1467 77.3312 17.52C77.3312 19.8667 76.7846 21.9067 75.6912 23.64C74.6246 25.3467 73.1046 26.6667 71.1313 27.6C69.1846 28.5333 66.8913 29 64.2513 29H53.4112ZM59.7312 24.04H64.0513C65.4646 24.04 66.6779 23.7867 67.6912 23.28C68.7312 22.7733 69.5312 22.04 70.0912 21.08C70.6513 20.0933 70.9313 18.9067 70.9313 17.52C70.9313 16.1067 70.6513 14.92 70.0912 13.96C69.5312 12.9733 68.7312 12.2267 67.6912 11.72C66.6779 11.2133 65.4646 10.96 64.0513 10.96H59.7312V24.04ZM86.8097 15.04H97.9297V19.64H86.8097V15.04ZM87.4497 24.16H99.7297V29H81.2097V6H99.2897V10.84H87.4497V24.16ZM121.775 22C121.775 23.44 121.361 24.72 120.535 25.84C119.735 26.96 118.561 27.84 117.015 28.48C115.495 29.12 113.615 29.44 111.375 29.44C109.535 29.44 107.721 29.2133 105.935 28.76C104.175 28.3067 102.748 27.7067 101.655 26.96L103.855 22.28C104.895 22.9733 106.108 23.52 107.495 23.92C108.881 24.32 110.295 24.52 111.735 24.52C113.148 24.52 114.135 24.32 114.695 23.92C115.255 23.52 115.535 23.0533 115.535 22.52C115.535 21.9867 115.281 21.56 114.775 21.24C114.295 20.92 113.655 20.6667 112.855 20.48C112.081 20.2667 111.215 20.0667 110.255 19.88C109.321 19.6933 108.375 19.4533 107.415 19.16C106.481 18.8667 105.615 18.48 104.815 18C104.041 17.4933 103.401 16.84 102.895 16.04C102.415 15.2133 102.175 14.1867 102.175 12.96C102.175 11.52 102.588 10.2533 103.415 9.16C104.268 8.04 105.468 7.16 107.015 6.52C108.561 5.88 110.401 5.56 112.535 5.56C113.975 5.56 115.441 5.72 116.935 6.04C118.428 6.36 119.735 6.86667 120.855 7.56L118.815 12.24C117.775 11.6 116.695 11.1467 115.575 10.88C114.481 10.6133 113.388 10.48 112.295 10.48C110.961 10.48 109.988 10.68 109.375 11.08C108.761 11.48 108.455 11.9867 108.455 12.6C108.455 13.1333 108.695 13.56 109.175 13.88C109.655 14.2 110.281 14.4667 111.055 14.68C111.855 14.8667 112.735 15.0533 113.695 15.24C114.655 15.4267 115.601 15.6667 116.535 15.96C117.468 16.2267 118.335 16.6 119.135 17.08C119.935 17.56 120.575 18.2 121.055 19C121.535 19.7733 121.775 20.7733 121.775 22ZM125.166 29V6H131.486V29H125.166ZM157.868 26.52C157.014 27.1333 156.054 27.6667 154.988 28.12C153.948 28.5467 152.854 28.8667 151.708 29.08C150.588 29.32 149.481 29.44 148.388 29.44C145.828 29.44 143.561 28.9333 141.588 27.92C139.614 26.88 138.068 25.4533 136.948 23.64C135.854 21.8267 135.308 19.7867 135.308 17.52C135.308 15.2 135.868 13.1467 136.988 11.36C138.108 9.57333 139.654 8.16 141.628 7.12C143.601 6.08 145.841 5.56 148.348 5.56C150.588 5.56 152.534 5.90667 154.188 6.6C155.868 7.26667 157.268 8.29333 158.388 9.68L154.228 13.4C153.454 12.4933 152.574 11.8267 151.588 11.4C150.628 10.9467 149.574 10.72 148.428 10.72C147.121 10.72 145.961 11.0133 144.948 11.6C143.934 12.16 143.134 12.9467 142.548 13.96C141.961 14.9733 141.668 16.16 141.668 17.52C141.668 18.8267 141.961 20 142.548 21.04C143.134 22.0533 143.934 22.8533 144.948 23.44C145.961 24 147.148 24.28 148.508 24.28C149.628 24.28 150.641 24.1067 151.548 23.76C152.481 23.4133 153.401 22.8933 154.308 22.2L157.868 26.52ZM152.108 26.6V17.2H157.868V26.52L152.108 26.6ZM162.755 29V6H167.955L180.915 21.56H178.555V6H184.755V29H179.555L166.555 13.44H168.955V29H162.755Z" fill="black"/>
</svg>
