<svg width="20" height="15" viewBox="0 0 20 15" fill="none" xmlns="http://www.w3.org/2000/svg">
<path fill-rule="evenodd" clip-rule="evenodd" d="M0.625 0H1.875C2.22018 0 2.5 0.335787 2.5 0.75C2.5 1.16421 2.22018 1.5 1.875 1.5H0.625C0.279822 1.5 0 1.16421 0 0.75C0 0.335787 0.279822 0 0.625 0ZM5.625 0H19.375C19.7201 0 20 0.335787 20 0.75C20 1.16421 19.7201 1.5 19.375 1.5H5.625C5.27982 1.5 5 1.16421 5 0.75C5 0.335787 5.27982 0 5.625 0ZM1.875 9H0.625C0.279822 9 0 9.33579 0 9.75C0 10.1642 0.279822 10.5 0.625 10.5H1.875C2.22018 10.5 2.5 10.1642 2.5 9.75C2.5 9.33579 2.22018 9 1.875 9ZM5.625 9H19.375C19.7201 9 20 9.33579 20 9.75C20 10.1642 19.7201 10.5 19.375 10.5H5.625C5.27982 10.5 5 10.1642 5 9.75C5 9.33579 5.27982 9 5.625 9ZM1.875 4.5H0.625C0.279822 4.5 0 4.83579 0 5.25C0 5.66421 0.279822 6 0.625 6H1.875C2.22018 6 2.5 5.66421 2.5 5.25C2.5 4.83579 2.22018 4.5 1.875 4.5ZM5.625 4.5H14.375C14.7201 4.5 15 4.83579 15 5.25C15 5.66421 14.7201 6 14.375 6H5.625C5.27982 6 5 5.66421 5 5.25C5 4.83579 5.27982 4.5 5.625 4.5ZM1.875 13.5H0.625C0.279822 13.5 0 13.8358 0 14.25C0 14.6642 0.279822 15 0.625 15H1.875C2.22018 15 2.5 14.6642 2.5 14.25C2.5 13.8358 2.22018 13.5 1.875 13.5ZM5.625 13.5H14.375C14.7201 13.5 15 13.8358 15 14.25C15 14.6642 14.7201 15 14.375 15H5.625C5.27982 15 5 14.6642 5 14.25C5 13.8358 5.27982 13.5 5.625 13.5Z" fill="white"/>
</svg>
