<svg width="120" height="121" viewBox="0 0 120 121" fill="none" xmlns="http://www.w3.org/2000/svg">
<path d="M10 85.2031V15.2031H110V85.2031H10ZM56.25 38.3281H63.75V30.8281H56.25V38.3281ZM56.25 53.9531H63.75V46.4531H56.25V53.9531ZM40.5 38.3281H48V30.8281H40.5V38.3281ZM40.5 53.9531H48V46.4531H40.5V53.9531ZM24.625 53.9531H32.125V46.4531H24.625V53.9531ZM24.625 38.3281H32.125V30.8281H24.625V38.3281ZM40.5 69.5781H79.625V62.0781H40.5V69.5781ZM72.125 53.9531H79.625V46.4531H72.125V53.9531ZM72.125 38.3281H79.625V30.8281H72.125V38.3281ZM87.875 53.9531H95.375V46.4531H87.875V53.9531ZM87.875 38.3281H95.375V30.8281H87.875V38.3281ZM60 115.203L41.625 96.7031H78.5L60 115.203ZM17.5 77.7031H102.5V22.7031H17.5V77.7031Z" fill="#7955c7"/>
</svg>
