<svg width="121" height="121" viewBox="0 0 121 121" fill="none" xmlns="http://www.w3.org/2000/svg">
<path d="M10.2031 110.203V33.4531L78.4531 5.95312L80.8281 12.2031L35.9531 30.2031H110.203V110.203H10.2031ZM17.7031 102.703H102.703V63.9531H17.7031V102.703ZM17.7031 56.4531H82.7031V48.9531H90.2031V56.4531H102.703V37.7031H17.7031V56.4531ZM40.0781 94.8281C43.4948 94.8281 46.3698 93.6615 48.7031 91.3281C51.0365 88.9948 52.2031 86.1198 52.2031 82.7031C52.2031 79.2865 51.0365 76.4115 48.7031 74.0781C46.3698 71.7448 43.4948 70.5781 40.0781 70.5781C36.6615 70.5781 33.7865 71.7448 31.4531 74.0781C29.1198 76.4115 27.9531 79.2865 27.9531 82.7031C27.9531 86.1198 29.1198 88.9948 31.4531 91.3281C33.7865 93.6615 36.6615 94.8281 40.0781 94.8281Z" fill="white"/>
</svg>
