<svg width="50" height="35" viewBox="0 0 50 35" fill="none" xmlns="http://www.w3.org/2000/svg">
<path d="M45.6055 0H4.39453C1.96748 0 0 1.96748 0 4.39453V29.7852C0 32.2122 1.96748 34.1797 4.39453 34.1797H45.6055C48.0325 34.1797 50 32.2122 50 29.7852V4.39453C50 1.96748 48.0325 0 45.6055 0ZM42.0891 25.1358C41.4732 25.6598 40.5484 25.5855 40.0242 24.969L31.5695 15.0283L25.7259 18.3622C25.276 18.6188 24.7239 18.6187 24.2742 18.3622L18.4306 15.0283L9.97578 24.9689C9.45195 25.585 8.52725 25.6601 7.91094 25.1357C7.29463 24.6116 7.22002 23.6872 7.74414 23.0709L15.8411 13.551L8.64922 9.44785C7.94648 9.04707 7.70186 8.15234 8.10264 7.44971C8.50361 6.74688 9.39814 6.50234 10.1009 6.90313C10.6969 7.24307 24.3279 15.0197 25 15.4032C25.6713 15.0202 39.3016 7.24404 39.8991 6.90313C40.6016 6.50225 41.4964 6.74688 41.8974 7.44971C42.2981 8.15234 42.0536 9.04697 41.3508 9.44785L34.1589 13.551L42.2559 23.0709C42.78 23.6873 42.7054 24.6116 42.0891 25.1358Z" fill="black"/>
</svg>
