<svg width="20" height="20" viewBox="0 0 20 20" fill="none" xmlns="http://www.w3.org/2000/svg">
<path fill-rule="evenodd" clip-rule="evenodd" d="M11.4422 19.0857L8.97116 13.3227C8.86234 13.069 8.97987 12.775 9.23367 12.6662C9.48746 12.5574 9.78142 12.6749 9.89024 12.9287L12.3614 18.692C12.5454 19.122 13.1636 19.0964 13.3114 18.6526L18.9724 1.6726C19.1051 1.27448 18.7259 0.895345 18.3278 1.02806L1.34898 6.687C0.903914 6.83552 0.878266 7.45425 1.30962 7.63912L8.54918 10.7411L16.8716 2.4216C17.0669 2.22637 17.3835 2.22642 17.5787 2.42172C17.7739 2.61702 17.7739 2.9336 17.5786 3.12883L9.01659 11.6878C8.86252 11.8418 8.63295 11.8743 8.44704 11.7853L0.915742 8.55828C-0.360686 8.01124 -0.284692 6.17796 1.0326 5.73836L18.0116 0.0793691C19.1915 -0.313924 20.3143 0.808946 19.921 1.98885L14.2601 18.9687C13.8218 20.2852 11.9879 20.3612 11.4422 19.0857Z" fill="black"/>
</svg>
