<svg width="22" height="22" viewBox="0 0 22 22" fill="none" xmlns="http://www.w3.org/2000/svg">
<path fill-rule="evenodd" clip-rule="evenodd" d="M1.5 10.75C1.5 5.64137 5.64137 1.5 10.75 1.5C12.4361 1.5 14.0147 1.95043 15.3745 2.73703C15.733 2.94443 16.1918 2.82191 16.3992 2.46337C16.6066 2.10482 16.4841 1.64602 16.1255 1.43862C14.5436 0.523511 12.7068 0 10.75 0C4.81294 0 0 4.81294 0 10.75C0 16.6871 4.81294 21.5 10.75 21.5C16.6871 21.5 21.5 16.6871 21.5 10.75C21.5 9.42769 21.2609 8.15951 20.8229 6.98747C20.678 6.59946 20.2459 6.40246 19.8579 6.54745C19.4699 6.69244 19.2729 7.12452 19.4178 7.51253C19.794 8.51917 20 9.60967 20 10.75C20 15.8586 15.8586 20 10.75 20C5.64137 20 1.5 15.8586 1.5 10.75ZM20.3075 3.25173C20.5846 2.94385 20.5596 2.46963 20.2518 2.19254C19.9439 1.91544 19.4697 1.9404 19.1926 2.24828L11.455 10.8456C11.012 11.3378 10.262 11.3992 9.74497 10.9855L6.21855 8.16436C5.8951 7.9056 5.42313 7.95804 5.16438 8.28149C4.90562 8.60493 4.95806 9.0769 5.28151 9.33566L8.80793 12.1568C9.94549 13.0668 11.5954 12.9319 12.5699 11.8491L20.3075 3.25173Z" fill="#28303F"/>
</svg>
