<svg width="20" height="13" viewBox="0 0 20 13" fill="none" xmlns="http://www.w3.org/2000/svg">
<path fill-rule="evenodd" clip-rule="evenodd" d="M9.9945 8.984C7.49136 8.984 5.38214 7.13236 5.04222 4.67553C5.00437 4.40199 5.19544 4.14956 5.46897 4.11172C5.74251 4.07387 5.99494 4.26494 6.03278 4.53848C6.30449 6.50229 7.99232 7.984 9.9945 7.984C12.2034 7.984 13.9945 6.19286 13.9945 3.984C13.9945 3.57298 13.9326 3.1713 13.8018 2.75236C12.5798 2.28935 11.2644 1.9911 10 1.9911C5.78381 1.9911 1 5.30854 1 6.9911C1 7.22435 1.23301 7.67705 1.67028 8.19901C1.84761 8.41069 1.81977 8.72604 1.60809 8.90338C1.39641 9.08071 1.08106 9.05287 0.903723 8.84119C0.329058 8.15523 0 7.5159 0 6.9911C0 4.66169 5.29307 0.9911 10 0.9911C11.0531 0.9911 12.1354 1.17477 13.1812 1.486C13.0272 1.27307 12.8465 1.06229 12.6371 0.857643C12.4396 0.664665 12.4359 0.348104 12.6289 0.150584C12.8218 -0.0469368 13.1384 -0.0506196 13.3359 0.142358C14.0284 0.818895 14.4277 1.49576 14.6096 1.99718C17.6079 3.25264 20 5.42487 20 6.9911C20 9.35488 14.7287 12.9911 10 12.9911C9.72386 12.9911 9.5 12.7672 9.5 12.4911C9.5 12.215 9.72386 11.9911 10 11.9911C14.2385 11.9911 19 8.70654 19 6.9911C19 5.97407 17.253 4.36009 14.9397 3.24217C14.9761 3.48609 14.9945 3.73379 14.9945 3.984C14.9945 6.74514 12.7556 8.984 9.9945 8.984Z" fill="white"/>
</svg>
