<svg width="285" height="208" viewBox="0 0 285 208" fill="none" xmlns="http://www.w3.org/2000/svg">
<path d="M0.90625 207.056V155.444C0.90625 149.208 3.1105 143.886 7.51899 139.477C11.9275 135.069 17.2499 132.864 23.4863 132.864H68.9691C72.6249 132.864 76.1195 133.778 79.4527 135.606C82.786 137.434 85.6353 139.961 88.0009 143.187C94.2373 152.219 102.194 159.208 111.871 164.154C121.548 169.1 131.871 171.573 142.838 171.573C153.806 171.573 164.128 169.1 173.805 164.154C183.482 159.208 191.547 152.219 197.998 143.187C200.364 139.961 203.159 137.434 206.385 135.606C209.611 133.778 213.052 132.864 216.707 132.864H262.19C268.427 132.864 273.749 135.069 278.157 139.477C282.566 143.886 284.77 149.208 284.77 155.444V207.056H200.901V168.67C193.16 175.766 184.289 181.25 174.289 185.121C164.289 188.992 153.806 190.927 142.838 190.927C131.871 190.927 121.441 188.992 111.549 185.121C101.656 181.25 92.7319 175.766 84.7752 168.67V207.056H0.90625ZM142.838 152.219C135.312 152.219 128.054 150.444 121.065 146.896C114.076 143.348 108.43 138.456 104.13 132.219C100.689 127.273 96.5491 123.295 91.7105 120.284C86.8719 117.273 81.657 115.23 76.0657 114.155C82.3021 107.704 92.0868 102.757 105.42 99.3167C118.753 95.8759 131.226 94.1555 142.838 94.1555C154.451 94.1555 166.977 95.8759 180.418 99.3167C193.858 102.757 203.697 107.704 209.933 114.155C204.342 115.23 199.127 117.273 194.289 120.284C189.45 123.295 185.31 127.273 181.87 132.219C177.569 138.456 171.924 143.348 164.934 146.896C157.945 150.444 150.58 152.219 142.838 152.219ZM39.615 110.284C29.9378 110.284 21.6047 106.79 14.6156 99.8005C7.62651 92.8115 4.13198 84.4783 4.13198 74.8011C4.13198 64.9089 7.62651 56.522 14.6156 49.6405C21.6047 42.7589 29.9378 39.3181 39.615 39.3181C49.5072 39.3181 57.8941 42.7589 64.7756 49.6405C71.6572 56.522 75.098 64.9089 75.098 74.8011C75.098 84.4783 71.6572 92.8115 64.7756 99.8005C57.8941 106.79 49.5072 110.284 39.615 110.284ZM246.062 110.284C236.384 110.284 228.051 106.79 221.062 99.8005C214.073 92.8115 210.579 84.4783 210.579 74.8011C210.579 64.9089 214.073 56.522 221.062 49.6405C228.051 42.7589 236.384 39.3181 246.062 39.3181C255.954 39.3181 264.341 42.7589 271.222 49.6405C278.104 56.522 281.545 64.9089 281.545 74.8011C281.545 84.4783 278.104 92.8115 271.222 99.8005C264.341 106.79 255.954 110.284 246.062 110.284ZM142.838 71.5754C133.161 71.5754 124.828 68.0809 117.839 61.0918C110.85 54.1027 107.355 45.7696 107.355 36.0924C107.355 26.2002 110.85 17.8133 117.839 10.9317C124.828 4.05015 133.161 0.609375 142.838 0.609375C152.73 0.609375 161.117 4.05015 167.999 10.9317C174.88 17.8133 178.321 26.2002 178.321 36.0924C178.321 45.7696 174.88 54.1027 167.999 61.0918C161.117 68.0809 152.73 71.5754 142.838 71.5754Z" fill="url(#paint0_linear_423_544)"/>
<defs>
<linearGradient id="paint0_linear_423_544" x1="142.838" y1="0.609375" x2="142.838" y2="207.056" gradientUnits="userSpaceOnUse">
<stop stop-color="#2013E9"/>
<stop offset="1" stop-color="#E756EF" stop-opacity="0.71"/>
</linearGradient>
</defs>
</svg>
