<svg width="121" height="121" viewBox="0 0 121 121" fill="none" xmlns="http://www.w3.org/2000/svg">
<path d="M21.4531 105.203V95.2031H17.7031C15.6198 95.2031 13.849 94.474 12.3906 93.0156C10.9323 91.5573 10.2031 89.7865 10.2031 87.7031V27.7031C10.2031 25.6198 10.9323 23.849 12.3906 22.3906C13.849 20.9323 15.6198 20.2031 17.7031 20.2031H102.703C104.786 20.2031 106.557 20.9323 108.016 22.3906C109.474 23.849 110.203 25.6198 110.203 27.7031V87.7031C110.203 89.7865 109.474 91.5573 108.016 93.0156C106.557 94.474 104.786 95.2031 102.703 95.2031H98.9531V105.203H96.0781L92.8281 95.2031H27.7031L24.3281 105.203H21.4531ZM17.7031 87.7031H102.703V27.7031H17.7031V87.7031Z" fill="#7955c7"/>
</svg>
