<svg width="290" height="263" viewBox="0 0 290 263" fill="none" xmlns="http://www.w3.org/2000/svg">
<path d="M33.0569 262.722V231.918H22.2098C16.1838 231.918 11.0616 229.672 6.8431 225.179C2.62488 220.687 0.515625 215.232 0.515625 208.814V23.9863C0.515625 17.5688 2.62488 12.1139 6.8431 7.62134C11.0616 3.12909 16.1838 0.882812 22.2098 0.882812H268.077C274.103 0.882812 279.225 3.12909 283.445 7.62134C287.663 12.1139 289.772 17.5688 289.772 23.9863V208.814C289.772 215.232 287.663 220.687 283.445 225.179C279.225 229.672 274.103 231.918 268.077 231.918H257.231V262.722H248.914L239.514 231.918H51.1355L41.3731 262.722H33.0569ZM22.2098 208.814H268.077V23.9863H22.2098V208.814Z" fill="url(#paint0_linear_419_466)"/>
<defs>
<linearGradient id="paint0_linear_419_466" x1="145.144" y1="0.882812" x2="145.144" y2="262.722" gradientUnits="userSpaceOnUse">
<stop stop-color="#2013E9"/>
<stop offset="1" stop-color="#E413E9" stop-opacity="0.71"/>
</linearGradient>
</defs>
</svg>
