<svg width="28" height="21" viewBox="0 0 28 21" fill="none" xmlns="http://www.w3.org/2000/svg">
<path d="M26.8109 1.19004C25.7129 1.88535 24.4972 2.41716 23.2106 2.76497C22.5201 2.05214 21.6023 1.54691 20.5815 1.3176C19.5607 1.0883 18.4861 1.14598 17.503 1.48285C16.5199 1.81971 15.6757 2.41952 15.0847 3.20113C14.4937 3.98275 14.1843 4.90846 14.1984 5.85307V6.88244C12.1834 6.92935 10.1868 6.52815 8.38636 5.71457C6.58592 4.90099 5.03753 3.70029 3.87911 2.21941C3.87911 2.21941 -0.707239 11.4837 9.61206 15.6012C7.25069 17.0402 4.43768 17.7618 1.58594 17.6599C11.9052 22.8068 24.5177 17.6599 24.5177 5.82219C24.5167 5.53547 24.4859 5.24945 24.426 4.96782C25.5962 3.93175 26.422 2.62365 26.8109 1.19004Z" stroke="white" stroke-width="2" stroke-linecap="round" stroke-linejoin="round"/>
</svg>
