<svg width="18" height="20" viewBox="0 0 18 20" fill="none" xmlns="http://www.w3.org/2000/svg">
<path fill-rule="evenodd" clip-rule="evenodd" d="M7.96251 1.71747L7.23749 6.67858C7.05893 7.8985 5.56525 8.39326 4.69221 7.52172L2.92196 5.75147C2.81693 5.87005 2.72459 5.97698 2.66395 6.04822C0.215235 9.21162 0.486249 13.7377 3.34117 16.5927C6.4649 19.7173 11.5312 19.7173 14.655 16.5926C17.7788 13.4689 17.7788 8.40341 14.655 5.27867C14.4597 5.08337 14.4598 4.76679 14.6551 4.57156C14.8504 4.37633 15.1669 4.37637 15.3622 4.57167C18.8764 8.08692 18.8764 13.7855 15.3622 17.2997C11.8479 20.815 6.14823 20.815 2.63401 17.2997C-0.577919 14.0878 -0.882778 8.99642 1.88676 5.41933C1.97014 5.32072 2.08576 5.18674 2.21363 5.04313L0.456909 3.28641C-0.414323 2.41368 0.080428 0.919999 1.30046 0.74142L6.26105 0.0164811C7.25433 -0.130229 8.10805 0.724188 7.96251 1.71747ZM2.91234 4.32763L1.16432 2.57961C0.873929 2.28872 1.039 1.79035 1.44518 1.73089L6.40699 1.00577C6.73691 0.956934 7.02154 1.24173 6.97305 1.57268L6.24802 6.53386C6.18859 6.93993 5.69021 7.105 5.39902 6.81431L3.61963 5.03492L4.41796 4.28322C4.61897 4.09388 4.62844 3.77744 4.4391 3.57643C4.24976 3.37542 3.93332 3.36595 3.73231 3.55529L2.91234 4.32763Z" fill="white"/>
</svg>
