<svg width="191" height="36" viewBox="0 0 191 36" fill="none" xmlns="http://www.w3.org/2000/svg">
<path d="M9.12 25.6L8.76 18.12L22.16 4H29.36L17.28 17L13.68 20.84L9.12 25.6ZM3.32 32V4H9.76V32H3.32ZM22.48 32L12.52 19.8L16.76 15.2L30.04 32H22.48ZM40.9434 32.48C38.7034 32.48 36.5568 32.1867 34.5034 31.6C32.4501 30.9867 30.7968 30.2 29.5434 29.24L31.7434 24.36C32.9434 25.2133 34.3568 25.92 35.9834 26.48C37.6368 27.0133 39.3034 27.28 40.9834 27.28C42.2634 27.28 43.2901 27.16 44.0634 26.92C44.8634 26.6533 45.4501 26.2933 45.8234 25.84C46.1968 25.3867 46.3834 24.8667 46.3834 24.28C46.3834 23.5333 46.0901 22.9467 45.5034 22.52C44.9168 22.0667 44.1434 21.7067 43.1834 21.44C42.2234 21.1467 41.1568 20.88 39.9834 20.64C38.8368 20.3733 37.6768 20.0533 36.5034 19.68C35.3568 19.3067 34.3034 18.8267 33.3434 18.24C32.3834 17.6533 31.5968 16.88 30.9834 15.92C30.3968 14.96 30.1034 13.7333 30.1034 12.24C30.1034 10.64 30.5301 9.18667 31.3834 7.88C32.2634 6.54666 33.5701 5.49333 35.3034 4.72C37.0634 3.92 39.2634 3.52 41.9034 3.52C43.6634 3.52 45.3968 3.73333 47.1034 4.16C48.8101 4.56 50.3168 5.17333 51.6234 6L49.6234 10.92C48.3168 10.1733 47.0101 9.62667 45.7034 9.28C44.3968 8.90667 43.1168 8.72 41.8634 8.72C40.6101 8.72 39.5834 8.86667 38.7834 9.16C37.9834 9.45333 37.4101 9.84 37.0634 10.32C36.7168 10.7733 36.5434 11.3067 36.5434 11.92C36.5434 12.64 36.8368 13.2267 37.4234 13.68C38.0101 14.1067 38.7834 14.4533 39.7434 14.72C40.7034 14.9867 41.7568 15.2533 42.9034 15.52C44.0768 15.7867 45.2368 16.0933 46.3834 16.44C47.5568 16.7867 48.6234 17.2533 49.5834 17.84C50.5434 18.4267 51.3168 19.2 51.9034 20.16C52.5168 21.12 52.8234 22.3333 52.8234 23.8C52.8234 25.3733 52.3834 26.8133 51.5034 28.12C50.6234 29.4267 49.3034 30.48 47.5434 31.28C45.8101 32.08 43.6101 32.48 40.9434 32.48ZM56.4112 32V9H67.2513C69.8913 9 72.1846 9.46667 74.1313 10.4C76.1046 11.3333 77.6246 12.6667 78.6912 14.4C79.7846 16.1067 80.3312 18.1467 80.3312 20.52C80.3312 22.8667 79.7846 24.9067 78.6912 26.64C77.6246 28.3467 76.1046 29.6667 74.1313 30.6C72.1846 31.5333 69.8913 32 67.2513 32H56.4112ZM62.7312 27.04H67.0513C68.4646 27.04 69.6779 26.7867 70.6912 26.28C71.7312 25.7733 72.5312 25.04 73.0912 24.08C73.6513 23.0933 73.9313 21.9067 73.9313 20.52C73.9313 19.1067 73.6513 17.92 73.0912 16.96C72.5312 15.9733 71.7312 15.2267 70.6912 14.72C69.6779 14.2133 68.4646 13.96 67.0513 13.96H62.7312V27.04ZM89.8097 18.04H100.93V22.64H89.8097V18.04ZM90.4497 27.16H102.73V32H84.2097V9H102.29V13.84H90.4497V27.16ZM124.775 25C124.775 26.44 124.361 27.72 123.535 28.84C122.735 29.96 121.561 30.84 120.015 31.48C118.495 32.12 116.615 32.44 114.375 32.44C112.535 32.44 110.721 32.2133 108.935 31.76C107.175 31.3067 105.748 30.7067 104.655 29.96L106.855 25.28C107.895 25.9733 109.108 26.52 110.495 26.92C111.881 27.32 113.295 27.52 114.735 27.52C116.148 27.52 117.135 27.32 117.695 26.92C118.255 26.52 118.535 26.0533 118.535 25.52C118.535 24.9867 118.281 24.56 117.775 24.24C117.295 23.92 116.655 23.6667 115.855 23.48C115.081 23.2667 114.215 23.0667 113.255 22.88C112.321 22.6933 111.375 22.4533 110.415 22.16C109.481 21.8667 108.615 21.48 107.815 21C107.041 20.4933 106.401 19.84 105.895 19.04C105.415 18.2133 105.175 17.1867 105.175 15.96C105.175 14.52 105.588 13.2533 106.415 12.16C107.268 11.04 108.468 10.16 110.015 9.52C111.561 8.88 113.401 8.56 115.535 8.56C116.975 8.56 118.441 8.72 119.935 9.04C121.428 9.36 122.735 9.86667 123.855 10.56L121.815 15.24C120.775 14.6 119.695 14.1467 118.575 13.88C117.481 13.6133 116.388 13.48 115.295 13.48C113.961 13.48 112.988 13.68 112.375 14.08C111.761 14.48 111.455 14.9867 111.455 15.6C111.455 16.1333 111.695 16.56 112.175 16.88C112.655 17.2 113.281 17.4667 114.055 17.68C114.855 17.8667 115.735 18.0533 116.695 18.24C117.655 18.4267 118.601 18.6667 119.535 18.96C120.468 19.2267 121.335 19.6 122.135 20.08C122.935 20.56 123.575 21.2 124.055 22C124.535 22.7733 124.775 23.7733 124.775 25ZM128.166 32V9H134.486V32H128.166ZM160.868 29.52C160.014 30.1333 159.054 30.6667 157.988 31.12C156.948 31.5467 155.854 31.8667 154.708 32.08C153.588 32.32 152.481 32.44 151.388 32.44C148.828 32.44 146.561 31.9333 144.588 30.92C142.614 29.88 141.068 28.4533 139.948 26.64C138.854 24.8267 138.308 22.7867 138.308 20.52C138.308 18.2 138.868 16.1467 139.988 14.36C141.108 12.5733 142.654 11.16 144.628 10.12C146.601 9.08 148.841 8.56 151.348 8.56C153.588 8.56 155.534 8.90667 157.188 9.6C158.868 10.2667 160.268 11.2933 161.388 12.68L157.228 16.4C156.454 15.4933 155.574 14.8267 154.588 14.4C153.628 13.9467 152.574 13.72 151.428 13.72C150.121 13.72 148.961 14.0133 147.948 14.6C146.934 15.16 146.134 15.9467 145.548 16.96C144.961 17.9733 144.668 19.16 144.668 20.52C144.668 21.8267 144.961 23 145.548 24.04C146.134 25.0533 146.934 25.8533 147.948 26.44C148.961 27 150.148 27.28 151.508 27.28C152.628 27.28 153.641 27.1067 154.548 26.76C155.481 26.4133 156.401 25.8933 157.308 25.2L160.868 29.52ZM155.108 29.6V20.2H160.868V29.52L155.108 29.6ZM165.755 32V9H170.955L183.915 24.56H181.555V9H187.755V32H182.555L169.555 16.44H171.955V32H165.755Z" fill="white"/>
</svg>
