<svg width="17" height="18" viewBox="0 0 17 18" fill="none" xmlns="http://www.w3.org/2000/svg">
<path d="M6.52083 12.3307H10.125C10.3194 12.3307 10.4618 12.2648 10.5521 12.1328C10.6424 12.0009 10.6875 11.8377 10.6875 11.6432V10.1224H9.4375V11.0807H7.20833V6.91406H9.4375V7.89323H10.6875V6.3724C10.6875 6.17795 10.6424 6.01128 10.5521 5.8724C10.4618 5.73351 10.3194 5.66406 10.125 5.66406H6.52083C6.32639 5.66406 6.18403 5.73351 6.09375 5.8724C6.00347 6.01128 5.95833 6.17795 5.95833 6.3724V11.6432C5.95833 11.8377 6.00347 12.0009 6.09375 12.1328C6.18403 12.2648 6.32639 12.3307 6.52083 12.3307ZM8.33333 17.3307C7.19444 17.3307 6.11806 17.112 5.10417 16.6745C4.09028 16.237 3.20486 15.6398 2.44792 14.8828C1.69097 14.1259 1.09375 13.2405 0.65625 12.2266C0.21875 11.2127 0 10.1363 0 8.9974C0 7.84462 0.21875 6.76128 0.65625 5.7474C1.09375 4.73351 1.69097 3.85156 2.44792 3.10156C3.20486 2.35156 4.09028 1.75781 5.10417 1.32031C6.11806 0.882812 7.19444 0.664062 8.33333 0.664062C9.48611 0.664062 10.5694 0.882812 11.5833 1.32031C12.5972 1.75781 13.4792 2.35156 14.2292 3.10156C14.9792 3.85156 15.5729 4.73351 16.0104 5.7474C16.4479 6.76128 16.6667 7.84462 16.6667 8.9974C16.6667 10.1363 16.4479 11.2127 16.0104 12.2266C15.5729 13.2405 14.9792 14.1259 14.2292 14.8828C13.4792 15.6398 12.5972 16.237 11.5833 16.6745C10.5694 17.112 9.48611 17.3307 8.33333 17.3307ZM8.33333 16.0807C10.3056 16.0807 11.9792 15.3898 13.3542 14.0078C14.7292 12.6259 15.4167 10.9557 15.4167 8.9974C15.4167 7.02517 14.7292 5.35156 13.3542 3.97656C11.9792 2.60156 10.3056 1.91406 8.33333 1.91406C6.375 1.91406 4.70486 2.60156 3.32292 3.97656C1.94097 5.35156 1.25 7.02517 1.25 8.9974C1.25 10.9557 1.94097 12.6259 3.32292 14.0078C4.70486 15.3898 6.375 16.0807 8.33333 16.0807Z" fill="#868080"/>
</svg>
