<svg width="28" height="26" viewBox="0 0 28 26" fill="none" xmlns="http://www.w3.org/2000/svg">
<g clip-path="url(#clip0_127_471)">
<path d="M19.4957 2.50781H8.02982C4.8636 2.50781 2.29688 4.81213 2.29688 7.65465V17.9483C2.29688 20.7908 4.8636 23.0952 8.02982 23.0952H19.4957C22.6619 23.0952 25.2286 20.7908 25.2286 17.9483V7.65465C25.2286 4.81213 22.6619 2.50781 19.4957 2.50781Z" stroke="white" stroke-width="2" stroke-linecap="round" stroke-linejoin="round"/>
<path d="M18.3419 12.1463C18.4834 13.003 18.3204 13.8779 17.8761 14.6467C17.4318 15.4154 16.7288 16.0388 15.8671 16.4282C15.0054 16.8175 14.0289 16.9531 13.0765 16.8155C12.124 16.6779 11.2442 16.2742 10.5621 15.6618C9.87994 15.0494 9.43026 14.2595 9.277 13.4044C9.12375 12.5494 9.27471 11.6727 9.70842 10.8991C10.1421 10.1255 10.8365 9.4944 11.6928 9.09553C12.549 8.69665 13.5236 8.55032 14.4779 8.67735C15.4512 8.80694 16.3524 9.21413 17.0482 9.8388C17.744 10.4635 18.1975 11.2725 18.3419 12.1463Z" stroke="white" stroke-width="2" stroke-linecap="round" stroke-linejoin="round"/>
</g>
<defs>
<clipPath id="clip0_127_471">
<rect width="27.5181" height="24.7048" fill="white" transform="translate(0 0.445312)"/>
</clipPath>
</defs>
</svg>
