<svg width="32" height="32" viewBox="0 0 32 32" fill="none" xmlns="http://www.w3.org/2000/svg">
<path d="M28.6231 12.111C29.1096 10.797 29.2501 9.544 28.9006 8.4195C28.7396 8.434 28.5726 8.4415 28.4016 8.4415C23.2806 8.4415 14.2296 2.003 13.5446 1C10.7221 5.1115 4.80608 8.2725 2.13208 11.8175C1.05008 13.252 0.509083 14.3195 1.58558 15.9605L12.8601 30.447C13.3686 31.1355 14.3651 31.1915 15.0746 30.5565C15.0746 30.5565 24.3206 18.692 31.0001 15.021C30.4981 14.0405 29.6626 13.062 28.6231 12.111ZM12.6636 27.377L12.6166 27.4095L12.5741 27.4465C12.4017 27.6011 12.2486 27.7758 12.1181 27.967L2.34908 15.4155C1.64558 14.327 1.84508 13.754 2.88058 12.382C4.05508 10.8255 5.93208 9.3145 7.91958 7.715C9.98558 6.052 12.1136 4.34 13.6766 2.392C16.2566 4.515 23.4731 9.2025 28.1426 9.374C28.7026 14.8725 17.3016 24.142 12.6636 27.377Z" fill="white"/>
<path d="M10 7.07525L22.6025 16.9503L23.0515 16.5483L10.328 6.78125L10 7.07525Z" fill="white"/>
<path d="M14.1036 12.3316L8.94556 8.01562C8.94556 8.01562 7.15056 9.16163 4.97656 11.6751L9.55256 16.4061L14.1036 12.3316Z" fill="white"/>
<path d="M2.80469 14.0279L12.5387 25.9584L14.3362 24.3499L3.95819 12.4844C3.95819 12.4844 3.05369 12.9739 2.80469 14.0279Z" fill="white"/>
<path d="M13.7109 14.712L19.3654 19.847L21.1619 18.2385L15.2744 13.3125L13.7109 14.712Z" fill="white"/>
<path d="M10.5859 17.5167L15.7744 23.0687L17.5704 21.4607L12.1494 16.1172L10.5859 17.5167Z" fill="white"/>
<path d="M13.9261 5.37819L13.1636 7.51919L13.6416 7.86719L16.0691 5.69369L15.5941 5.39469L13.9216 6.89219L14.6611 4.80519L14.1651 4.49219L11.8516 6.56319L12.2661 6.86469L13.9261 5.37819Z" fill="white"/>
<path d="M16.0062 9.58581L16.4692 9.17031L15.0567 8.16631L15.6972 7.59331L16.9517 8.45231L17.3972 8.05281L16.1287 7.20581L16.6577 6.73281L18.0622 7.64131L18.5182 7.23381L16.5762 6.00781L14.1172 8.20931L16.0062 9.58581Z" fill="white"/>
<path d="M17.5082 10.6836L19.4277 9.52106L20.0563 9.12306L19.6393 9.66206L18.4042 11.3376L19.0007 11.7721L22.6948 9.87256L21.9938 9.43006L19.9683 10.5891L19.4513 10.9021L19.7983 10.4456L20.9987 8.80206L20.3247 8.37706L18.4522 9.53756L17.9548 9.85206L18.2972 9.41656L19.4312 7.81306L18.7992 7.41406L16.9688 10.2906L17.5082 10.6836Z" fill="white"/>
<path d="M24.4519 10.8518C23.9974 10.5663 23.5729 10.4298 23.1759 10.4378C22.7819 10.4463 22.4589 10.5648 22.2044 10.7928C21.9249 11.0428 21.8309 11.3023 21.9229 11.5713C21.9769 11.7328 22.1489 11.9663 22.4424 12.2753L22.7459 12.5943C22.9269 12.7823 23.0434 12.9363 23.0944 13.0543C23.1444 13.1738 23.1199 13.2783 23.0214 13.3663C22.8529 13.5168 22.6334 13.5453 22.3639 13.4533C22.1963 13.3898 22.0385 13.3031 21.8949 13.1958C21.6099 12.9928 21.4714 12.7973 21.4749 12.6088C21.4769 12.5058 21.5334 12.3878 21.6439 12.2548L20.9884 11.7978C20.6929 12.0623 20.5809 12.3573 20.6549 12.6848C20.7294 13.0153 20.9829 13.3413 21.4229 13.6623C21.8614 13.9838 22.2979 14.1558 22.7269 14.1748C23.1604 14.1933 23.5174 14.0793 23.7924 13.8318C24.0624 13.5908 24.1584 13.3318 24.0814 13.0563C24.0324 12.8798 23.8949 12.6743 23.6729 12.4403L23.1754 11.9153C22.9859 11.7173 22.8729 11.5798 22.8344 11.5013C22.7744 11.3818 22.7959 11.2763 22.8994 11.1843C23.0119 11.0833 23.1559 11.0423 23.3319 11.0598C23.5104 11.0773 23.6964 11.1488 23.8909 11.2738C24.0674 11.3878 24.1919 11.5058 24.2614 11.6278C24.3689 11.8118 24.3389 11.9893 24.1739 12.1578L24.9124 12.6443C25.2194 12.3483 25.3154 12.0348 25.2009 11.7053C25.0889 11.3788 24.8384 11.0938 24.4519 10.8518Z" fill="white"/>
</svg>
