<svg width="46" height="46" viewBox="0 0 46 46" fill="none" xmlns="http://www.w3.org/2000/svg">
<path d="M22.6285 36.7689L23.6656 35.7318L23.6656 14.8486L21.5914 14.8486L21.5914 35.7318L22.6285 36.7689ZM25.6455 10.8416L19.6115 10.8416L19.6115 8.86171C19.6115 8.32746 19.808 7.86391 20.2008 7.47107C20.5936 7.07823 21.0572 6.88182 21.5914 6.88181L23.6656 6.88181C24.1999 6.88182 24.6634 7.07823 25.0563 7.47107C25.4491 7.86391 25.6455 8.32746 25.6455 8.86171L25.6455 10.8416ZM25.6455 12.8215V36.5803L22.6285 39.5973L19.6115 36.5803V12.8215L25.6455 12.8215ZM22.6285 14.8486L21.5914 14.8486L23.6656 14.8486L22.6285 14.8486Z" fill="#211C4C"/>
</svg>
